<mxfile host="Electron" agent="Mozilla/5.0 (Windows NT 10.0; Win64; x64) AppleWebKit/537.36 (KHTML, like Gecko) draw.io/24.7.8 Chrome/128.0.6613.36 Electron/32.0.1 Safari/537.36" version="24.7.8">
  <diagram name="ページ1" id="jkC7DBFYIMHmfHFSw2ls">
    <mxGraphModel dx="3793" dy="1505" grid="0" gridSize="10" guides="1" tooltips="1" connect="1" arrows="1" fold="1" page="0" pageScale="1" pageWidth="827" pageHeight="1169" math="0" shadow="0">
      <root>
        <mxCell id="0" />
        <mxCell id="1" parent="0" />
        <mxCell id="uNL0XxB8N9niCBaAOZDF-7" value="a-z A-Z _" style="edgeStyle=none;curved=1;rounded=0;orthogonalLoop=1;jettySize=auto;html=1;fontSize=12;startSize=8;endSize=8;" parent="1" source="uNL0XxB8N9niCBaAOZDF-1" target="uNL0XxB8N9niCBaAOZDF-6" edge="1">
          <mxGeometry relative="1" as="geometry" />
        </mxCell>
        <mxCell id="uNL0XxB8N9niCBaAOZDF-9" value="other" style="edgeStyle=none;curved=1;rounded=0;orthogonalLoop=1;jettySize=auto;html=1;fontSize=12;startSize=8;endSize=8;" parent="1" source="uNL0XxB8N9niCBaAOZDF-1" target="uNL0XxB8N9niCBaAOZDF-8" edge="1">
          <mxGeometry relative="1" as="geometry" />
        </mxCell>
        <mxCell id="uNL0XxB8N9niCBaAOZDF-50" value="end" style="edgeStyle=none;curved=1;rounded=0;orthogonalLoop=1;jettySize=auto;html=1;fontSize=12;startSize=8;endSize=8;" parent="1" source="uNL0XxB8N9niCBaAOZDF-1" target="uNL0XxB8N9niCBaAOZDF-51" edge="1">
          <mxGeometry x="-0.1775" y="15" relative="1" as="geometry">
            <mxPoint x="226" y="130.91160220994482" as="targetPoint" />
            <Array as="points">
              <mxPoint x="92" y="157" />
            </Array>
            <mxPoint as="offset" />
          </mxGeometry>
        </mxCell>
        <mxCell id="uNL0XxB8N9niCBaAOZDF-58" value="/&lt;br&gt;next" style="edgeStyle=none;curved=1;rounded=0;orthogonalLoop=1;jettySize=auto;html=1;fontSize=12;startSize=8;endSize=8;" parent="1" source="uNL0XxB8N9niCBaAOZDF-1" target="uNL0XxB8N9niCBaAOZDF-57" edge="1">
          <mxGeometry x="-0.5819" y="1" relative="1" as="geometry">
            <mxPoint x="1" as="offset" />
          </mxGeometry>
        </mxCell>
        <mxCell id="uNL0XxB8N9niCBaAOZDF-1" value="common0" style="ellipse;whiteSpace=wrap;html=1;aspect=fixed;" parent="1" vertex="1">
          <mxGeometry x="-46" y="34" width="71" height="71" as="geometry" />
        </mxCell>
        <mxCell id="uNL0XxB8N9niCBaAOZDF-2" style="edgeStyle=none;curved=1;rounded=0;orthogonalLoop=1;jettySize=auto;html=1;entryX=1;entryY=0.5;entryDx=0;entryDy=0;fontSize=12;startSize=8;endSize=8;" parent="1" source="uNL0XxB8N9niCBaAOZDF-1" target="uNL0XxB8N9niCBaAOZDF-1" edge="1">
          <mxGeometry relative="1" as="geometry" />
        </mxCell>
        <mxCell id="uNL0XxB8N9niCBaAOZDF-5" value="white space&lt;br&gt;next" style="edgeStyle=none;curved=1;rounded=0;orthogonalLoop=1;jettySize=auto;html=1;fontSize=12;startSize=8;endSize=8;" parent="1" source="uNL0XxB8N9niCBaAOZDF-1" target="uNL0XxB8N9niCBaAOZDF-1" edge="1">
          <mxGeometry relative="1" as="geometry">
            <Array as="points">
              <mxPoint x="76" y="104" />
            </Array>
          </mxGeometry>
        </mxCell>
        <mxCell id="uNL0XxB8N9niCBaAOZDF-12" value="other&lt;br&gt;next&lt;br&gt;expressionBuffer" style="edgeStyle=none;curved=1;rounded=0;orthogonalLoop=1;jettySize=auto;html=1;fontSize=12;startSize=8;endSize=8;entryX=0.725;entryY=0.1;entryDx=0;entryDy=0;entryPerimeter=0;" parent="1" source="uNL0XxB8N9niCBaAOZDF-6" target="uNL0XxB8N9niCBaAOZDF-56" edge="1">
          <mxGeometry relative="1" as="geometry" />
        </mxCell>
        <mxCell id="uNL0XxB8N9niCBaAOZDF-19" value="space&lt;br&gt;next" style="edgeStyle=none;curved=1;rounded=0;orthogonalLoop=1;jettySize=auto;html=1;fontSize=12;startSize=8;endSize=8;entryX=0.5;entryY=0;entryDx=0;entryDy=0;entryPerimeter=0;" parent="1" source="uNL0XxB8N9niCBaAOZDF-6" target="uNL0XxB8N9niCBaAOZDF-20" edge="1">
          <mxGeometry relative="1" as="geometry">
            <mxPoint x="-10.25" y="317" as="targetPoint" />
          </mxGeometry>
        </mxCell>
        <mxCell id="b2e5XpM2e_VBH4c9PTkn-98" value="=&lt;div&gt;next&lt;/div&gt;" style="rounded=0;orthogonalLoop=1;jettySize=auto;html=1;" edge="1" parent="1" source="uNL0XxB8N9niCBaAOZDF-6" target="b2e5XpM2e_VBH4c9PTkn-92">
          <mxGeometry relative="1" as="geometry" />
        </mxCell>
        <mxCell id="b2e5XpM2e_VBH4c9PTkn-163" value="{" style="rounded=0;orthogonalLoop=1;jettySize=auto;html=1;exitX=1;exitY=1;exitDx=0;exitDy=0;entryX=0.39;entryY=0.186;entryDx=0;entryDy=0;entryPerimeter=0;" edge="1" parent="1" source="uNL0XxB8N9niCBaAOZDF-6" target="b2e5XpM2e_VBH4c9PTkn-162">
          <mxGeometry relative="1" as="geometry" />
        </mxCell>
        <mxCell id="b2e5XpM2e_VBH4c9PTkn-171" value=";" style="edgeStyle=orthogonalEdgeStyle;rounded=0;orthogonalLoop=1;jettySize=auto;html=1;" edge="1" parent="1" source="uNL0XxB8N9niCBaAOZDF-6" target="b2e5XpM2e_VBH4c9PTkn-170">
          <mxGeometry relative="1" as="geometry">
            <Array as="points">
              <mxPoint x="160" y="272" />
              <mxPoint x="160" y="277" />
            </Array>
          </mxGeometry>
        </mxCell>
        <mxCell id="b2e5XpM2e_VBH4c9PTkn-174" value="next==(&amp;amp;&amp;amp;branchBuffer==if,elif" style="edgeStyle=orthogonalEdgeStyle;rounded=0;orthogonalLoop=1;jettySize=auto;html=1;" edge="1" parent="1" source="uNL0XxB8N9niCBaAOZDF-6" target="b2e5XpM2e_VBH4c9PTkn-1">
          <mxGeometry relative="1" as="geometry">
            <Array as="points">
              <mxPoint x="15" y="359" />
              <mxPoint x="590" y="359" />
            </Array>
          </mxGeometry>
        </mxCell>
        <mxCell id="uNL0XxB8N9niCBaAOZDF-6" value="common1" style="ellipse;whiteSpace=wrap;html=1;aspect=fixed;" parent="1" vertex="1">
          <mxGeometry x="-50.5" y="193" width="80" height="80" as="geometry" />
        </mxCell>
        <mxCell id="uNL0XxB8N9niCBaAOZDF-8" value="error" style="ellipse;whiteSpace=wrap;html=1;aspect=fixed;" parent="1" vertex="1">
          <mxGeometry x="-284" y="-138" width="80" height="80" as="geometry" />
        </mxCell>
        <mxCell id="uNL0XxB8N9niCBaAOZDF-10" value="a-z A-Z _ 0-9&lt;br&gt;next&lt;br&gt;branchBuffer" style="edgeStyle=none;curved=1;rounded=0;orthogonalLoop=1;jettySize=auto;html=1;fontSize=12;startSize=8;endSize=8;" parent="1" source="uNL0XxB8N9niCBaAOZDF-6" target="uNL0XxB8N9niCBaAOZDF-6" edge="1">
          <mxGeometry relative="1" as="geometry">
            <Array as="points">
              <mxPoint x="94" y="281" />
            </Array>
          </mxGeometry>
        </mxCell>
        <mxCell id="uNL0XxB8N9niCBaAOZDF-15" style="edgeStyle=none;curved=1;rounded=0;orthogonalLoop=1;jettySize=auto;html=1;entryX=0.5;entryY=0;entryDx=0;entryDy=0;fontSize=12;startSize=8;endSize=8;" parent="1" source="uNL0XxB8N9niCBaAOZDF-13" target="uNL0XxB8N9niCBaAOZDF-1" edge="1">
          <mxGeometry relative="1" as="geometry" />
        </mxCell>
        <mxCell id="uNL0XxB8N9niCBaAOZDF-13" value="" style="verticalLabelPosition=bottom;verticalAlign=top;html=1;shape=mxgraph.basic.donut;dx=11.29;" parent="1" vertex="1">
          <mxGeometry x="-40.5" y="-55" width="60" height="57" as="geometry" />
        </mxCell>
        <mxCell id="uNL0XxB8N9niCBaAOZDF-16" value="" style="verticalLabelPosition=bottom;verticalAlign=top;html=1;shape=mxgraph.flowchart.or;" parent="1" vertex="1">
          <mxGeometry x="-380" y="-124.5" width="54" height="53" as="geometry" />
        </mxCell>
        <mxCell id="uNL0XxB8N9niCBaAOZDF-17" style="edgeStyle=none;curved=1;rounded=0;orthogonalLoop=1;jettySize=auto;html=1;entryX=1;entryY=0.5;entryDx=0;entryDy=0;entryPerimeter=0;fontSize=12;startSize=8;endSize=8;" parent="1" source="uNL0XxB8N9niCBaAOZDF-8" target="uNL0XxB8N9niCBaAOZDF-16" edge="1">
          <mxGeometry relative="1" as="geometry" />
        </mxCell>
        <mxCell id="uNL0XxB8N9niCBaAOZDF-22" style="edgeStyle=none;curved=1;rounded=0;orthogonalLoop=1;jettySize=auto;html=1;fontSize=12;startSize=8;endSize=8;" parent="1" source="uNL0XxB8N9niCBaAOZDF-20" target="uNL0XxB8N9niCBaAOZDF-21" edge="1">
          <mxGeometry relative="1" as="geometry" />
        </mxCell>
        <mxCell id="uNL0XxB8N9niCBaAOZDF-23" value="var" style="edgeLabel;html=1;align=center;verticalAlign=middle;resizable=0;points=[];fontSize=12;" parent="uNL0XxB8N9niCBaAOZDF-22" vertex="1" connectable="0">
          <mxGeometry x="-0.4746" y="-1" relative="1" as="geometry">
            <mxPoint as="offset" />
          </mxGeometry>
        </mxCell>
        <mxCell id="uNL0XxB8N9niCBaAOZDF-55" value="other" style="edgeStyle=none;curved=1;rounded=0;orthogonalLoop=1;jettySize=auto;html=1;fontSize=12;startSize=8;endSize=8;" parent="1" source="uNL0XxB8N9niCBaAOZDF-20" target="uNL0XxB8N9niCBaAOZDF-56" edge="1">
          <mxGeometry relative="1" as="geometry">
            <mxPoint x="-461" y="528.9223251028807" as="targetPoint" />
          </mxGeometry>
        </mxCell>
        <mxCell id="b2e5XpM2e_VBH4c9PTkn-2" value="if,elif" style="rounded=0;orthogonalLoop=1;jettySize=auto;html=1;" edge="1" parent="1" target="b2e5XpM2e_VBH4c9PTkn-1">
          <mxGeometry relative="1" as="geometry">
            <mxPoint x="47.25" y="400.1629963552182" as="sourcePoint" />
            <mxPoint x="467.90733060299317" y="534.7955525232892" as="targetPoint" />
          </mxGeometry>
        </mxCell>
        <mxCell id="b2e5XpM2e_VBH4c9PTkn-36" value="else" style="rounded=0;orthogonalLoop=1;jettySize=auto;html=1;" edge="1" parent="1" source="uNL0XxB8N9niCBaAOZDF-20" target="b2e5XpM2e_VBH4c9PTkn-30">
          <mxGeometry relative="1" as="geometry" />
        </mxCell>
        <mxCell id="b2e5XpM2e_VBH4c9PTkn-97" value="next == &quot;=&quot;&lt;br&gt;next" style="rounded=0;orthogonalLoop=1;jettySize=auto;html=1;" edge="1" parent="1" source="uNL0XxB8N9niCBaAOZDF-20" target="b2e5XpM2e_VBH4c9PTkn-92">
          <mxGeometry x="-0.6634" y="-2" relative="1" as="geometry">
            <mxPoint as="offset" />
          </mxGeometry>
        </mxCell>
        <mxCell id="b2e5XpM2e_VBH4c9PTkn-117" value="while" style="rounded=0;orthogonalLoop=1;jettySize=auto;html=1;" edge="1" parent="1" source="uNL0XxB8N9niCBaAOZDF-20" target="b2e5XpM2e_VBH4c9PTkn-116">
          <mxGeometry x="-0.5631" y="-2" relative="1" as="geometry">
            <mxPoint as="offset" />
          </mxGeometry>
        </mxCell>
        <mxCell id="b2e5XpM2e_VBH4c9PTkn-146" value="next==;&lt;br&gt;break" style="rounded=0;orthogonalLoop=1;jettySize=auto;html=1;" edge="1" parent="1" source="uNL0XxB8N9niCBaAOZDF-20" target="b2e5XpM2e_VBH4c9PTkn-151">
          <mxGeometry x="-0.6402" y="2" relative="1" as="geometry">
            <mxPoint x="2671" y="655.5714285714289" as="targetPoint" />
            <mxPoint x="1" y="1" as="offset" />
          </mxGeometry>
        </mxCell>
        <mxCell id="b2e5XpM2e_VBH4c9PTkn-157" value="next==;&lt;br&gt;continue" style="rounded=0;orthogonalLoop=1;jettySize=auto;html=1;" edge="1" parent="1" source="uNL0XxB8N9niCBaAOZDF-20" target="b2e5XpM2e_VBH4c9PTkn-154">
          <mxGeometry x="-0.5376" relative="1" as="geometry">
            <mxPoint x="-1" as="offset" />
          </mxGeometry>
        </mxCell>
        <mxCell id="uNL0XxB8N9niCBaAOZDF-20" value="branchBuffer==" style="strokeWidth=2;html=1;shape=mxgraph.flowchart.decision;whiteSpace=wrap;" parent="1" vertex="1">
          <mxGeometry x="-67.25" y="353" width="113.5" height="58" as="geometry" />
        </mxCell>
        <mxCell id="uNL0XxB8N9niCBaAOZDF-26" value="a-z A-Z _" style="edgeStyle=none;curved=1;rounded=0;orthogonalLoop=1;jettySize=auto;html=1;entryX=0.5;entryY=0;entryDx=0;entryDy=0;fontSize=12;startSize=8;endSize=8;" parent="1" source="uNL0XxB8N9niCBaAOZDF-21" target="uNL0XxB8N9niCBaAOZDF-25" edge="1">
          <mxGeometry relative="1" as="geometry" />
        </mxCell>
        <mxCell id="uNL0XxB8N9niCBaAOZDF-29" value="other" style="edgeStyle=none;curved=1;rounded=0;orthogonalLoop=1;jettySize=auto;html=1;fontSize=12;startSize=8;endSize=8;entryX=1;entryY=0.25;entryDx=0;entryDy=0;" parent="1" source="uNL0XxB8N9niCBaAOZDF-21" target="uNL0XxB8N9niCBaAOZDF-28" edge="1">
          <mxGeometry relative="1" as="geometry" />
        </mxCell>
        <mxCell id="uNL0XxB8N9niCBaAOZDF-21" value="var0" style="ellipse;whiteSpace=wrap;html=1;aspect=fixed;" parent="1" vertex="1">
          <mxGeometry x="-49" y="511" width="80" height="80" as="geometry" />
        </mxCell>
        <mxCell id="uNL0XxB8N9niCBaAOZDF-24" value="white space&lt;br&gt;next" style="edgeStyle=none;curved=1;rounded=0;orthogonalLoop=1;jettySize=auto;html=1;fontSize=12;startSize=8;endSize=8;" parent="1" source="uNL0XxB8N9niCBaAOZDF-21" target="uNL0XxB8N9niCBaAOZDF-21" edge="1">
          <mxGeometry relative="1" as="geometry">
            <Array as="points">
              <mxPoint x="101" y="596" />
            </Array>
          </mxGeometry>
        </mxCell>
        <mxCell id="uNL0XxB8N9niCBaAOZDF-31" value="other" style="edgeStyle=none;curved=1;rounded=0;orthogonalLoop=1;jettySize=auto;html=1;fontSize=12;startSize=8;endSize=8;entryX=1;entryY=0.75;entryDx=0;entryDy=0;" parent="1" source="uNL0XxB8N9niCBaAOZDF-25" target="uNL0XxB8N9niCBaAOZDF-28" edge="1">
          <mxGeometry relative="1" as="geometry" />
        </mxCell>
        <mxCell id="uNL0XxB8N9niCBaAOZDF-33" value=";&lt;div&gt;next&lt;/div&gt;" style="edgeStyle=none;curved=1;rounded=0;orthogonalLoop=1;jettySize=auto;html=1;fontSize=12;startSize=8;endSize=8;entryX=1;entryY=0.25;entryDx=0;entryDy=0;" parent="1" source="uNL0XxB8N9niCBaAOZDF-25" target="uNL0XxB8N9niCBaAOZDF-32" edge="1">
          <mxGeometry relative="1" as="geometry" />
        </mxCell>
        <mxCell id="uNL0XxB8N9niCBaAOZDF-42" value="=&lt;div&gt;next&lt;/div&gt;" style="edgeStyle=none;curved=1;rounded=0;orthogonalLoop=1;jettySize=auto;html=1;fontSize=12;startSize=8;endSize=8;exitX=1;exitY=1;exitDx=0;exitDy=0;" parent="1" source="uNL0XxB8N9niCBaAOZDF-25" target="uNL0XxB8N9niCBaAOZDF-40" edge="1">
          <mxGeometry x="-0.064" y="-22" relative="1" as="geometry">
            <Array as="points">
              <mxPoint x="206" y="796" />
            </Array>
            <mxPoint as="offset" />
          </mxGeometry>
        </mxCell>
        <mxCell id="uNL0XxB8N9niCBaAOZDF-25" value="var1" style="ellipse;whiteSpace=wrap;html=1;aspect=fixed;" parent="1" vertex="1">
          <mxGeometry x="-49.5" y="636" width="80" height="80" as="geometry" />
        </mxCell>
        <mxCell id="uNL0XxB8N9niCBaAOZDF-28" value="to error" style="rounded=1;whiteSpace=wrap;html=1;absoluteArcSize=1;arcSize=14;strokeWidth=2;" parent="1" vertex="1">
          <mxGeometry x="-219" y="593" width="100" height="30" as="geometry" />
        </mxCell>
        <mxCell id="uNL0XxB8N9niCBaAOZDF-30" value="a-z A-Z 0-9 _&lt;br&gt;next&lt;br&gt;nameBuffer" style="edgeStyle=none;curved=1;rounded=0;orthogonalLoop=1;jettySize=auto;html=1;fontSize=12;startSize=8;endSize=8;" parent="1" source="uNL0XxB8N9niCBaAOZDF-25" target="uNL0XxB8N9niCBaAOZDF-25" edge="1">
          <mxGeometry relative="1" as="geometry">
            <Array as="points">
              <mxPoint x="94" y="728" />
            </Array>
          </mxGeometry>
        </mxCell>
        <mxCell id="uNL0XxB8N9niCBaAOZDF-32" value="register variable (nameBuffer)&lt;br&gt;to common0" style="rounded=1;whiteSpace=wrap;html=1;absoluteArcSize=1;arcSize=14;strokeWidth=2;" parent="1" vertex="1">
          <mxGeometry x="-304" y="775" width="177" height="45" as="geometry" />
        </mxCell>
        <mxCell id="uNL0XxB8N9niCBaAOZDF-36" style="edgeStyle=none;curved=1;rounded=0;orthogonalLoop=1;jettySize=auto;html=1;entryX=1;entryY=0.75;entryDx=0;entryDy=0;fontSize=12;startSize=8;endSize=8;" parent="1" source="uNL0XxB8N9niCBaAOZDF-34" target="uNL0XxB8N9niCBaAOZDF-32" edge="1">
          <mxGeometry relative="1" as="geometry" />
        </mxCell>
        <mxCell id="uNL0XxB8N9niCBaAOZDF-37" value=";&lt;div&gt;next&lt;/div&gt;" style="edgeLabel;html=1;align=center;verticalAlign=middle;resizable=0;points=[];fontSize=12;" parent="uNL0XxB8N9niCBaAOZDF-36" vertex="1" connectable="0">
          <mxGeometry x="0.0471" y="-1" relative="1" as="geometry">
            <mxPoint as="offset" />
          </mxGeometry>
        </mxCell>
        <mxCell id="uNL0XxB8N9niCBaAOZDF-41" value="=&lt;div&gt;next&lt;/div&gt;" style="edgeStyle=none;curved=1;rounded=0;orthogonalLoop=1;jettySize=auto;html=1;fontSize=12;startSize=8;endSize=8;" parent="1" source="uNL0XxB8N9niCBaAOZDF-34" target="uNL0XxB8N9niCBaAOZDF-40" edge="1">
          <mxGeometry relative="1" as="geometry" />
        </mxCell>
        <mxCell id="uNL0XxB8N9niCBaAOZDF-34" value="var2" style="ellipse;whiteSpace=wrap;html=1;aspect=fixed;" parent="1" vertex="1">
          <mxGeometry x="-44.5" y="775" width="75.5" height="75.5" as="geometry" />
        </mxCell>
        <mxCell id="uNL0XxB8N9niCBaAOZDF-35" value="space&lt;br&gt;next" style="edgeStyle=none;curved=1;rounded=0;orthogonalLoop=1;jettySize=auto;html=1;fontSize=12;startSize=8;endSize=8;" parent="1" source="uNL0XxB8N9niCBaAOZDF-25" target="uNL0XxB8N9niCBaAOZDF-34" edge="1">
          <mxGeometry relative="1" as="geometry" />
        </mxCell>
        <mxCell id="uNL0XxB8N9niCBaAOZDF-38" value="white space&lt;br&gt;next" style="edgeStyle=none;curved=1;rounded=0;orthogonalLoop=1;jettySize=auto;html=1;fontSize=12;startSize=8;endSize=8;" parent="1" source="uNL0XxB8N9niCBaAOZDF-34" target="uNL0XxB8N9niCBaAOZDF-34" edge="1">
          <mxGeometry relative="1" as="geometry">
            <Array as="points">
              <mxPoint x="91" y="847" />
            </Array>
          </mxGeometry>
        </mxCell>
        <mxCell id="uNL0XxB8N9niCBaAOZDF-39" value="other" style="edgeStyle=none;curved=1;rounded=0;orthogonalLoop=1;jettySize=auto;html=1;entryX=0.847;entryY=0.971;entryDx=0;entryDy=0;entryPerimeter=0;fontSize=12;startSize=8;endSize=8;" parent="1" source="uNL0XxB8N9niCBaAOZDF-34" target="uNL0XxB8N9niCBaAOZDF-28" edge="1">
          <mxGeometry relative="1" as="geometry" />
        </mxCell>
        <mxCell id="uNL0XxB8N9niCBaAOZDF-45" value="other" style="edgeStyle=none;curved=1;rounded=0;orthogonalLoop=1;jettySize=auto;html=1;fontSize=12;startSize=8;endSize=8;" parent="1" source="uNL0XxB8N9niCBaAOZDF-40" target="uNL0XxB8N9niCBaAOZDF-44" edge="1">
          <mxGeometry relative="1" as="geometry" />
        </mxCell>
        <mxCell id="uNL0XxB8N9niCBaAOZDF-77" value="end" style="edgeStyle=none;curved=1;rounded=0;orthogonalLoop=1;jettySize=auto;html=1;entryX=1;entryY=0.25;entryDx=0;entryDy=0;fontSize=12;startSize=8;endSize=8;" parent="1" source="uNL0XxB8N9niCBaAOZDF-40" target="uNL0XxB8N9niCBaAOZDF-74" edge="1">
          <mxGeometry relative="1" as="geometry" />
        </mxCell>
        <mxCell id="uNL0XxB8N9niCBaAOZDF-40" value="var3" style="ellipse;whiteSpace=wrap;html=1;aspect=fixed;" parent="1" vertex="1">
          <mxGeometry x="141" y="882" width="80" height="80" as="geometry" />
        </mxCell>
        <mxCell id="uNL0XxB8N9niCBaAOZDF-43" value="white space&lt;div&gt;next&lt;/div&gt;" style="edgeStyle=none;curved=1;rounded=0;orthogonalLoop=1;jettySize=auto;html=1;fontSize=12;startSize=8;endSize=8;" parent="1" source="uNL0XxB8N9niCBaAOZDF-40" target="uNL0XxB8N9niCBaAOZDF-40" edge="1">
          <mxGeometry relative="1" as="geometry">
            <Array as="points">
              <mxPoint x="283" y="969" />
            </Array>
          </mxGeometry>
        </mxCell>
        <mxCell id="uNL0XxB8N9niCBaAOZDF-48" value=";&lt;br&gt;next" style="edgeStyle=none;curved=1;rounded=0;orthogonalLoop=1;jettySize=auto;html=1;entryX=1;entryY=0.5;entryDx=0;entryDy=0;fontSize=12;startSize=8;endSize=8;" parent="1" source="uNL0XxB8N9niCBaAOZDF-44" target="uNL0XxB8N9niCBaAOZDF-47" edge="1">
          <mxGeometry relative="1" as="geometry" />
        </mxCell>
        <mxCell id="uNL0XxB8N9niCBaAOZDF-78" value="end" style="edgeStyle=none;curved=1;rounded=0;orthogonalLoop=1;jettySize=auto;html=1;entryX=1;entryY=0.5;entryDx=0;entryDy=0;fontSize=12;startSize=8;endSize=8;" parent="1" source="uNL0XxB8N9niCBaAOZDF-44" target="uNL0XxB8N9niCBaAOZDF-74" edge="1">
          <mxGeometry relative="1" as="geometry" />
        </mxCell>
        <mxCell id="uNL0XxB8N9niCBaAOZDF-44" value="var4" style="ellipse;whiteSpace=wrap;html=1;aspect=fixed;" parent="1" vertex="1">
          <mxGeometry x="141" y="1018" width="80" height="80" as="geometry" />
        </mxCell>
        <mxCell id="uNL0XxB8N9niCBaAOZDF-46" value="other&lt;br&gt;next&lt;br&gt;&lt;div&gt;expressionBuffer&lt;/div&gt;" style="edgeStyle=none;curved=1;rounded=0;orthogonalLoop=1;jettySize=auto;html=1;fontSize=12;startSize=8;endSize=8;" parent="1" source="uNL0XxB8N9niCBaAOZDF-44" target="uNL0XxB8N9niCBaAOZDF-44" edge="1">
          <mxGeometry relative="1" as="geometry">
            <Array as="points">
              <mxPoint x="281" y="1113" />
            </Array>
            <mxPoint as="offset" />
          </mxGeometry>
        </mxCell>
        <mxCell id="uNL0XxB8N9niCBaAOZDF-47" value="analized = expressionAnalizer (expressionBuffer)&lt;br&gt;initialize variable (nameBuffer = analized)&lt;br&gt;to common0" style="rounded=1;whiteSpace=wrap;html=1;" parent="1" vertex="1">
          <mxGeometry x="-212" y="1028" width="292" height="60" as="geometry" />
        </mxCell>
        <mxCell id="uNL0XxB8N9niCBaAOZDF-53" style="edgeStyle=none;curved=1;rounded=0;orthogonalLoop=1;jettySize=auto;html=1;fontSize=12;startSize=8;endSize=8;" parent="1" source="uNL0XxB8N9niCBaAOZDF-51" target="uNL0XxB8N9niCBaAOZDF-52" edge="1">
          <mxGeometry relative="1" as="geometry" />
        </mxCell>
        <mxCell id="uNL0XxB8N9niCBaAOZDF-51" value="success" style="ellipse;whiteSpace=wrap;html=1;aspect=fixed;" parent="1" vertex="1">
          <mxGeometry x="183" y="105" width="80" height="80" as="geometry" />
        </mxCell>
        <mxCell id="uNL0XxB8N9niCBaAOZDF-52" value="" style="verticalLabelPosition=bottom;verticalAlign=top;html=1;shape=mxgraph.flowchart.or;" parent="1" vertex="1">
          <mxGeometry x="305" y="120" width="50" height="50" as="geometry" />
        </mxCell>
        <mxCell id="uNL0XxB8N9niCBaAOZDF-68" value="&quot;&lt;div&gt;next&lt;br&gt;expressionBuffer&lt;/div&gt;" style="edgeStyle=none;curved=1;rounded=0;orthogonalLoop=1;jettySize=auto;html=1;fontSize=12;startSize=8;endSize=8;" parent="1" source="uNL0XxB8N9niCBaAOZDF-56" target="uNL0XxB8N9niCBaAOZDF-67" edge="1">
          <mxGeometry relative="1" as="geometry" />
        </mxCell>
        <mxCell id="uNL0XxB8N9niCBaAOZDF-80" value="end" style="edgeStyle=none;curved=1;rounded=0;orthogonalLoop=1;jettySize=auto;html=1;fontSize=12;startSize=8;endSize=8;exitX=0;exitY=1;exitDx=0;exitDy=0;entryX=1;entryY=0;entryDx=0;entryDy=0;" parent="1" source="uNL0XxB8N9niCBaAOZDF-56" target="uNL0XxB8N9niCBaAOZDF-79" edge="1">
          <mxGeometry relative="1" as="geometry" />
        </mxCell>
        <mxCell id="uNL0XxB8N9niCBaAOZDF-84" value=";&lt;div&gt;next&lt;/div&gt;" style="edgeStyle=none;curved=1;rounded=0;orthogonalLoop=1;jettySize=auto;html=1;fontSize=12;startSize=8;endSize=8;" parent="1" source="uNL0XxB8N9niCBaAOZDF-56" target="uNL0XxB8N9niCBaAOZDF-83" edge="1">
          <mxGeometry relative="1" as="geometry">
            <mxPoint x="-663" y="555" as="targetPoint" />
          </mxGeometry>
        </mxCell>
        <mxCell id="uNL0XxB8N9niCBaAOZDF-56" value="expr0" style="ellipse;whiteSpace=wrap;html=1;aspect=fixed;" parent="1" vertex="1">
          <mxGeometry x="-818" y="518" width="80" height="80" as="geometry" />
        </mxCell>
        <mxCell id="uNL0XxB8N9niCBaAOZDF-61" value="other" style="edgeStyle=none;curved=1;rounded=0;orthogonalLoop=1;jettySize=auto;html=1;fontSize=12;startSize=8;endSize=8;" parent="1" source="uNL0XxB8N9niCBaAOZDF-57" target="uNL0XxB8N9niCBaAOZDF-8" edge="1">
          <mxGeometry relative="1" as="geometry" />
        </mxCell>
        <mxCell id="uNL0XxB8N9niCBaAOZDF-62" value="/&lt;br&gt;next" style="edgeStyle=none;curved=1;rounded=0;orthogonalLoop=1;jettySize=auto;html=1;fontSize=12;startSize=8;endSize=8;" parent="1" source="uNL0XxB8N9niCBaAOZDF-57" target="uNL0XxB8N9niCBaAOZDF-60" edge="1">
          <mxGeometry relative="1" as="geometry" />
        </mxCell>
        <mxCell id="uNL0XxB8N9niCBaAOZDF-57" value="comment0" style="ellipse;whiteSpace=wrap;html=1;aspect=fixed;" parent="1" vertex="1">
          <mxGeometry x="-244" y="69" width="80" height="80" as="geometry" />
        </mxCell>
        <mxCell id="uNL0XxB8N9niCBaAOZDF-65" value="LF" style="edgeStyle=none;curved=1;rounded=0;orthogonalLoop=1;jettySize=auto;html=1;entryX=0;entryY=1;entryDx=0;entryDy=0;fontSize=12;startSize=8;endSize=8;" parent="1" source="uNL0XxB8N9niCBaAOZDF-60" target="uNL0XxB8N9niCBaAOZDF-1" edge="1">
          <mxGeometry x="-0.278" y="38" relative="1" as="geometry">
            <Array as="points">
              <mxPoint x="-189" y="222" />
            </Array>
            <mxPoint as="offset" />
          </mxGeometry>
        </mxCell>
        <mxCell id="uNL0XxB8N9niCBaAOZDF-76" value="end" style="edgeStyle=none;curved=1;rounded=0;orthogonalLoop=1;jettySize=auto;html=1;fontSize=12;startSize=8;endSize=8;" parent="1" source="uNL0XxB8N9niCBaAOZDF-60" target="FrpmsNkqK2XCQaNXBgTS-1" edge="1">
          <mxGeometry relative="1" as="geometry" />
        </mxCell>
        <mxCell id="uNL0XxB8N9niCBaAOZDF-60" value="comment1" style="ellipse;whiteSpace=wrap;html=1;aspect=fixed;" parent="1" vertex="1">
          <mxGeometry x="-402" y="101" width="80" height="80" as="geometry" />
        </mxCell>
        <mxCell id="uNL0XxB8N9niCBaAOZDF-64" value="other&lt;br&gt;next" style="edgeStyle=none;curved=1;rounded=0;orthogonalLoop=1;jettySize=auto;html=1;fontSize=12;startSize=8;endSize=8;" parent="1" source="uNL0XxB8N9niCBaAOZDF-60" target="uNL0XxB8N9niCBaAOZDF-60" edge="1">
          <mxGeometry relative="1" as="geometry">
            <Array as="points">
              <mxPoint x="-455" y="174" />
            </Array>
          </mxGeometry>
        </mxCell>
        <mxCell id="uNL0XxB8N9niCBaAOZDF-66" value="other&lt;br&gt;next&lt;br&gt;expressionBuffer" style="edgeStyle=none;curved=1;rounded=0;orthogonalLoop=1;jettySize=auto;html=1;fontSize=12;startSize=8;endSize=8;" parent="1" source="uNL0XxB8N9niCBaAOZDF-56" target="uNL0XxB8N9niCBaAOZDF-56" edge="1">
          <mxGeometry relative="1" as="geometry">
            <Array as="points">
              <mxPoint x="-884" y="610" />
            </Array>
          </mxGeometry>
        </mxCell>
        <mxCell id="uNL0XxB8N9niCBaAOZDF-71" value="\&lt;div&gt;next&lt;/div&gt;&lt;div&gt;expressionBuffer&lt;/div&gt;" style="edgeStyle=none;curved=1;rounded=0;orthogonalLoop=1;jettySize=auto;html=1;entryX=0.5;entryY=0;entryDx=0;entryDy=0;fontSize=12;startSize=8;endSize=8;" parent="1" source="uNL0XxB8N9niCBaAOZDF-67" target="uNL0XxB8N9niCBaAOZDF-70" edge="1">
          <mxGeometry relative="1" as="geometry" />
        </mxCell>
        <mxCell id="uNL0XxB8N9niCBaAOZDF-81" value="LF&lt;br&gt;end" style="edgeStyle=none;curved=1;rounded=0;orthogonalLoop=1;jettySize=auto;html=1;entryX=1;entryY=0.5;entryDx=0;entryDy=0;fontSize=12;startSize=8;endSize=8;" parent="1" source="uNL0XxB8N9niCBaAOZDF-67" target="uNL0XxB8N9niCBaAOZDF-79" edge="1">
          <mxGeometry relative="1" as="geometry" />
        </mxCell>
        <mxCell id="uNL0XxB8N9niCBaAOZDF-67" value="expr1" style="ellipse;whiteSpace=wrap;html=1;aspect=fixed;" parent="1" vertex="1">
          <mxGeometry x="-818" y="708" width="80" height="80" as="geometry" />
        </mxCell>
        <mxCell id="uNL0XxB8N9niCBaAOZDF-69" value="other&lt;div&gt;next&lt;br&gt;expressionBuffer&lt;/div&gt;" style="edgeStyle=none;curved=1;rounded=0;orthogonalLoop=1;jettySize=auto;html=1;fontSize=12;startSize=8;endSize=8;" parent="1" source="uNL0XxB8N9niCBaAOZDF-67" target="uNL0XxB8N9niCBaAOZDF-67" edge="1">
          <mxGeometry relative="1" as="geometry">
            <Array as="points">
              <mxPoint x="-880" y="787" />
            </Array>
          </mxGeometry>
        </mxCell>
        <mxCell id="uNL0XxB8N9niCBaAOZDF-73" value="other&lt;br&gt;next&lt;div&gt;expressionBuffer&lt;/div&gt;" style="edgeStyle=none;curved=1;rounded=0;orthogonalLoop=1;jettySize=auto;html=1;entryX=1;entryY=0.5;entryDx=0;entryDy=0;fontSize=12;startSize=8;endSize=8;exitX=0.975;exitY=0.425;exitDx=0;exitDy=0;exitPerimeter=0;" parent="1" source="uNL0XxB8N9niCBaAOZDF-70" target="uNL0XxB8N9niCBaAOZDF-67" edge="1">
          <mxGeometry x="-0.2442" y="31" relative="1" as="geometry">
            <Array as="points">
              <mxPoint x="-631" y="815" />
            </Array>
            <mxPoint y="-1" as="offset" />
          </mxGeometry>
        </mxCell>
        <mxCell id="uNL0XxB8N9niCBaAOZDF-82" value="LF&lt;br&gt;end" style="edgeStyle=none;curved=1;rounded=0;orthogonalLoop=1;jettySize=auto;html=1;fontSize=12;startSize=8;endSize=8;" parent="1" source="uNL0XxB8N9niCBaAOZDF-70" target="uNL0XxB8N9niCBaAOZDF-79" edge="1">
          <mxGeometry x="-0.0049" y="-13" relative="1" as="geometry">
            <Array as="points">
              <mxPoint x="-940" y="802" />
            </Array>
            <mxPoint as="offset" />
          </mxGeometry>
        </mxCell>
        <mxCell id="uNL0XxB8N9niCBaAOZDF-70" value="expr2" style="ellipse;whiteSpace=wrap;html=1;aspect=fixed;" parent="1" vertex="1">
          <mxGeometry x="-820" y="882" width="80" height="80" as="geometry" />
        </mxCell>
        <mxCell id="uNL0XxB8N9niCBaAOZDF-72" value="&quot;&lt;div&gt;next&lt;/div&gt;&lt;div&gt;expressionBuffer&lt;/div&gt;" style="edgeStyle=none;curved=1;rounded=0;orthogonalLoop=1;jettySize=auto;html=1;entryX=0.975;entryY=0.6;entryDx=0;entryDy=0;entryPerimeter=0;fontSize=12;startSize=8;endSize=8;exitX=0.95;exitY=0.288;exitDx=0;exitDy=0;exitPerimeter=0;" parent="1" source="uNL0XxB8N9niCBaAOZDF-67" target="uNL0XxB8N9niCBaAOZDF-56" edge="1">
          <mxGeometry x="0.3807" y="31" relative="1" as="geometry">
            <Array as="points">
              <mxPoint x="-605" y="637" />
            </Array>
            <mxPoint as="offset" />
          </mxGeometry>
        </mxCell>
        <mxCell id="uNL0XxB8N9niCBaAOZDF-74" value="to error" style="rounded=1;whiteSpace=wrap;html=1;" parent="1" vertex="1">
          <mxGeometry x="-44.5" y="943" width="120" height="31" as="geometry" />
        </mxCell>
        <mxCell id="uNL0XxB8N9niCBaAOZDF-79" value="to error" style="rounded=1;whiteSpace=wrap;html=1;" parent="1" vertex="1">
          <mxGeometry x="-1075" y="646" width="120" height="32" as="geometry" />
        </mxCell>
        <mxCell id="b2e5XpM2e_VBH4c9PTkn-101" style="edgeStyle=orthogonalEdgeStyle;rounded=0;orthogonalLoop=1;jettySize=auto;html=1;" edge="1" parent="1" source="uNL0XxB8N9niCBaAOZDF-83" target="uNL0XxB8N9niCBaAOZDF-1">
          <mxGeometry relative="1" as="geometry">
            <Array as="points">
              <mxPoint x="-606" y="57" />
            </Array>
          </mxGeometry>
        </mxCell>
        <mxCell id="uNL0XxB8N9niCBaAOZDF-83" value="expressionAnalizer (branchBuffer+&lt;span style=&quot;background-color: initial;&quot;&gt;expressionBuffer)&lt;/span&gt;&lt;div&gt;to common0&lt;/div&gt;" style="rounded=1;whiteSpace=wrap;html=1;" parent="1" vertex="1">
          <mxGeometry x="-652" y="539.5" width="300" height="45" as="geometry" />
        </mxCell>
        <mxCell id="uNL0XxB8N9niCBaAOZDF-86" value="&quot;&lt;div&gt;next&lt;br&gt;expressionBuffer&lt;/div&gt;" style="edgeStyle=none;curved=1;rounded=0;orthogonalLoop=1;jettySize=auto;html=1;fontSize=12;startSize=8;endSize=8;exitX=0.5;exitY=1;exitDx=0;exitDy=0;" parent="1" source="uNL0XxB8N9niCBaAOZDF-44" target="uNL0XxB8N9niCBaAOZDF-90" edge="1">
          <mxGeometry relative="1" as="geometry">
            <mxPoint x="178" y="1126" as="sourcePoint" />
          </mxGeometry>
        </mxCell>
        <mxCell id="uNL0XxB8N9niCBaAOZDF-87" value="end" style="edgeStyle=none;curved=1;rounded=0;orthogonalLoop=1;jettySize=auto;html=1;fontSize=12;startSize=8;endSize=8;exitX=0;exitY=1;exitDx=0;exitDy=0;entryX=1;entryY=0;entryDx=0;entryDy=0;" parent="1" source="uNL0XxB8N9niCBaAOZDF-44" target="uNL0XxB8N9niCBaAOZDF-96" edge="1">
          <mxGeometry relative="1" as="geometry">
            <mxPoint x="150" y="1114" as="sourcePoint" />
          </mxGeometry>
        </mxCell>
        <mxCell id="uNL0XxB8N9niCBaAOZDF-88" value="\&lt;div&gt;next&lt;/div&gt;&lt;div&gt;expressionBuffer&lt;/div&gt;" style="edgeStyle=none;curved=1;rounded=0;orthogonalLoop=1;jettySize=auto;html=1;entryX=0.5;entryY=0;entryDx=0;entryDy=0;fontSize=12;startSize=8;endSize=8;" parent="1" source="uNL0XxB8N9niCBaAOZDF-90" target="uNL0XxB8N9niCBaAOZDF-94" edge="1">
          <mxGeometry relative="1" as="geometry" />
        </mxCell>
        <mxCell id="uNL0XxB8N9niCBaAOZDF-89" value="LF&lt;br&gt;end" style="edgeStyle=none;curved=1;rounded=0;orthogonalLoop=1;jettySize=auto;html=1;entryX=1;entryY=0.5;entryDx=0;entryDy=0;fontSize=12;startSize=8;endSize=8;" parent="1" source="uNL0XxB8N9niCBaAOZDF-90" target="uNL0XxB8N9niCBaAOZDF-96" edge="1">
          <mxGeometry relative="1" as="geometry" />
        </mxCell>
        <mxCell id="uNL0XxB8N9niCBaAOZDF-90" value="var5" style="ellipse;whiteSpace=wrap;html=1;aspect=fixed;" parent="1" vertex="1">
          <mxGeometry x="138" y="1236" width="80" height="80" as="geometry" />
        </mxCell>
        <mxCell id="uNL0XxB8N9niCBaAOZDF-91" value="other&lt;div&gt;next&lt;br&gt;expressionBuffer&lt;/div&gt;" style="edgeStyle=none;curved=1;rounded=0;orthogonalLoop=1;jettySize=auto;html=1;fontSize=12;startSize=8;endSize=8;" parent="1" source="uNL0XxB8N9niCBaAOZDF-90" target="uNL0XxB8N9niCBaAOZDF-90" edge="1">
          <mxGeometry relative="1" as="geometry">
            <Array as="points">
              <mxPoint x="76" y="1315" />
            </Array>
          </mxGeometry>
        </mxCell>
        <mxCell id="uNL0XxB8N9niCBaAOZDF-92" value="other&lt;br&gt;next&lt;div&gt;expressionBuffer&lt;/div&gt;" style="edgeStyle=none;curved=1;rounded=0;orthogonalLoop=1;jettySize=auto;html=1;entryX=1;entryY=0.5;entryDx=0;entryDy=0;fontSize=12;startSize=8;endSize=8;exitX=0.975;exitY=0.425;exitDx=0;exitDy=0;exitPerimeter=0;" parent="1" source="uNL0XxB8N9niCBaAOZDF-94" target="uNL0XxB8N9niCBaAOZDF-90" edge="1">
          <mxGeometry x="-0.2442" y="31" relative="1" as="geometry">
            <Array as="points">
              <mxPoint x="325" y="1343" />
            </Array>
            <mxPoint y="-1" as="offset" />
          </mxGeometry>
        </mxCell>
        <mxCell id="uNL0XxB8N9niCBaAOZDF-93" value="LF&lt;br&gt;end" style="edgeStyle=none;curved=1;rounded=0;orthogonalLoop=1;jettySize=auto;html=1;fontSize=12;startSize=8;endSize=8;" parent="1" source="uNL0XxB8N9niCBaAOZDF-94" target="uNL0XxB8N9niCBaAOZDF-96" edge="1">
          <mxGeometry x="-0.0049" y="-13" relative="1" as="geometry">
            <Array as="points">
              <mxPoint x="16" y="1330" />
            </Array>
            <mxPoint as="offset" />
          </mxGeometry>
        </mxCell>
        <mxCell id="uNL0XxB8N9niCBaAOZDF-94" value="var6" style="ellipse;whiteSpace=wrap;html=1;aspect=fixed;" parent="1" vertex="1">
          <mxGeometry x="136" y="1410" width="80" height="80" as="geometry" />
        </mxCell>
        <mxCell id="uNL0XxB8N9niCBaAOZDF-95" value="&quot;&lt;div&gt;next&lt;/div&gt;&lt;div&gt;expressionBuffer&lt;/div&gt;" style="edgeStyle=none;curved=1;rounded=0;orthogonalLoop=1;jettySize=auto;html=1;entryX=1;entryY=1;entryDx=0;entryDy=0;fontSize=12;startSize=8;endSize=8;exitX=0.95;exitY=0.288;exitDx=0;exitDy=0;exitPerimeter=0;" parent="1" source="uNL0XxB8N9niCBaAOZDF-90" target="uNL0XxB8N9niCBaAOZDF-44" edge="1">
          <mxGeometry x="0.3807" y="31" relative="1" as="geometry">
            <mxPoint x="216" y="1094" as="targetPoint" />
            <Array as="points">
              <mxPoint x="351" y="1165" />
            </Array>
            <mxPoint as="offset" />
          </mxGeometry>
        </mxCell>
        <mxCell id="uNL0XxB8N9niCBaAOZDF-96" value="to error" style="rounded=1;whiteSpace=wrap;html=1;" parent="1" vertex="1">
          <mxGeometry x="-119" y="1174" width="120" height="32" as="geometry" />
        </mxCell>
        <mxCell id="FrpmsNkqK2XCQaNXBgTS-1" value="to success" style="rounded=1;whiteSpace=wrap;html=1;" parent="1" vertex="1">
          <mxGeometry x="-422" width="120" height="36" as="geometry" />
        </mxCell>
        <mxCell id="b2e5XpM2e_VBH4c9PTkn-6" value="(&lt;br&gt;next" style="edgeStyle=orthogonalEdgeStyle;rounded=0;orthogonalLoop=1;jettySize=auto;html=1;" edge="1" parent="1" source="b2e5XpM2e_VBH4c9PTkn-1" target="b2e5XpM2e_VBH4c9PTkn-9">
          <mxGeometry relative="1" as="geometry" />
        </mxCell>
        <mxCell id="b2e5XpM2e_VBH4c9PTkn-8" value="other" style="edgeStyle=orthogonalEdgeStyle;rounded=0;orthogonalLoop=1;jettySize=auto;html=1;" edge="1" parent="1" source="b2e5XpM2e_VBH4c9PTkn-1" target="b2e5XpM2e_VBH4c9PTkn-7">
          <mxGeometry relative="1" as="geometry" />
        </mxCell>
        <mxCell id="b2e5XpM2e_VBH4c9PTkn-1" value="if0" style="ellipse;whiteSpace=wrap;html=1;aspect=fixed;" vertex="1" parent="1">
          <mxGeometry x="550" y="514" width="80" height="80" as="geometry" />
        </mxCell>
        <mxCell id="b2e5XpM2e_VBH4c9PTkn-4" value="white space&lt;br&gt;next" style="edgeStyle=orthogonalEdgeStyle;rounded=0;orthogonalLoop=1;jettySize=auto;html=1;" edge="1" parent="1" source="b2e5XpM2e_VBH4c9PTkn-1" target="b2e5XpM2e_VBH4c9PTkn-1">
          <mxGeometry relative="1" as="geometry">
            <Array as="points">
              <mxPoint x="694" y="575" />
            </Array>
          </mxGeometry>
        </mxCell>
        <mxCell id="b2e5XpM2e_VBH4c9PTkn-12" value="(&lt;div&gt;next&lt;br&gt;&lt;div&gt;expressionBuffer&lt;br&gt;&lt;/div&gt;&lt;/div&gt;" style="edgeStyle=orthogonalEdgeStyle;rounded=0;orthogonalLoop=1;jettySize=auto;html=1;" edge="1" parent="1" source="b2e5XpM2e_VBH4c9PTkn-5" target="b2e5XpM2e_VBH4c9PTkn-11">
          <mxGeometry relative="1" as="geometry">
            <Array as="points">
              <mxPoint x="726" y="749" />
              <mxPoint x="726" y="749" />
            </Array>
          </mxGeometry>
        </mxCell>
        <mxCell id="b2e5XpM2e_VBH4c9PTkn-23" value="&quot;&lt;div&gt;next&lt;/div&gt;&lt;div&gt;expressionBuffer&lt;/div&gt;" style="edgeStyle=orthogonalEdgeStyle;rounded=0;orthogonalLoop=1;jettySize=auto;html=1;" edge="1" parent="1" source="b2e5XpM2e_VBH4c9PTkn-5" target="b2e5XpM2e_VBH4c9PTkn-17">
          <mxGeometry x="-0.0693" y="-22" relative="1" as="geometry">
            <Array as="points">
              <mxPoint x="650" y="843" />
              <mxPoint x="650" y="843" />
            </Array>
            <mxPoint as="offset" />
          </mxGeometry>
        </mxCell>
        <mxCell id="b2e5XpM2e_VBH4c9PTkn-25" value="end" style="edgeStyle=orthogonalEdgeStyle;rounded=0;orthogonalLoop=1;jettySize=auto;html=1;" edge="1" parent="1" source="b2e5XpM2e_VBH4c9PTkn-5" target="b2e5XpM2e_VBH4c9PTkn-22">
          <mxGeometry relative="1" as="geometry" />
        </mxCell>
        <mxCell id="b2e5XpM2e_VBH4c9PTkn-27" value=")&lt;div&gt;next&lt;br&gt;&lt;div&gt;expressionBuffer&lt;br&gt;&lt;/div&gt;&lt;/div&gt;" style="rounded=0;orthogonalLoop=1;jettySize=auto;html=1;" edge="1" parent="1" source="b2e5XpM2e_VBH4c9PTkn-5" target="b2e5XpM2e_VBH4c9PTkn-26">
          <mxGeometry x="0.0414" y="11" relative="1" as="geometry">
            <mxPoint as="offset" />
          </mxGeometry>
        </mxCell>
        <mxCell id="b2e5XpM2e_VBH4c9PTkn-29" value="bracCount&amp;lt;=0" style="edgeStyle=orthogonalEdgeStyle;rounded=0;orthogonalLoop=1;jettySize=auto;html=1;" edge="1" parent="1" source="b2e5XpM2e_VBH4c9PTkn-5" target="b2e5XpM2e_VBH4c9PTkn-30">
          <mxGeometry x="-0.4601" relative="1" as="geometry">
            <Array as="points">
              <mxPoint x="730" y="734" />
              <mxPoint x="730" y="622" />
              <mxPoint x="855" y="622" />
            </Array>
            <mxPoint as="offset" />
          </mxGeometry>
        </mxCell>
        <mxCell id="b2e5XpM2e_VBH4c9PTkn-5" value="if1" style="ellipse;whiteSpace=wrap;html=1;aspect=fixed;" vertex="1" parent="1">
          <mxGeometry x="592" y="724" width="80" height="80" as="geometry" />
        </mxCell>
        <mxCell id="b2e5XpM2e_VBH4c9PTkn-7" value="to error" style="rounded=1;whiteSpace=wrap;html=1;absoluteArcSize=1;arcSize=14;strokeWidth=2;" vertex="1" parent="1">
          <mxGeometry x="402" y="600" width="100" height="30" as="geometry" />
        </mxCell>
        <mxCell id="b2e5XpM2e_VBH4c9PTkn-10" style="edgeStyle=orthogonalEdgeStyle;rounded=0;orthogonalLoop=1;jettySize=auto;html=1;" edge="1" parent="1" source="b2e5XpM2e_VBH4c9PTkn-9" target="b2e5XpM2e_VBH4c9PTkn-5">
          <mxGeometry relative="1" as="geometry" />
        </mxCell>
        <mxCell id="b2e5XpM2e_VBH4c9PTkn-9" value="bracCount=1" style="rounded=1;whiteSpace=wrap;html=1;" vertex="1" parent="1">
          <mxGeometry x="530" y="646" width="120" height="36" as="geometry" />
        </mxCell>
        <mxCell id="b2e5XpM2e_VBH4c9PTkn-13" value="" style="edgeStyle=orthogonalEdgeStyle;rounded=0;orthogonalLoop=1;jettySize=auto;html=1;" edge="1" parent="1" source="b2e5XpM2e_VBH4c9PTkn-11" target="b2e5XpM2e_VBH4c9PTkn-5">
          <mxGeometry relative="1" as="geometry">
            <Array as="points">
              <mxPoint x="724" y="773" />
              <mxPoint x="724" y="773" />
            </Array>
          </mxGeometry>
        </mxCell>
        <mxCell id="b2e5XpM2e_VBH4c9PTkn-11" value="bracCount++" style="rounded=1;whiteSpace=wrap;html=1;" vertex="1" parent="1">
          <mxGeometry x="834" y="734" width="120" height="60" as="geometry" />
        </mxCell>
        <mxCell id="b2e5XpM2e_VBH4c9PTkn-15" value="\&lt;div&gt;next&lt;/div&gt;&lt;div&gt;expressionBuffer&lt;/div&gt;" style="edgeStyle=none;curved=1;rounded=0;orthogonalLoop=1;jettySize=auto;html=1;entryX=0.5;entryY=0;entryDx=0;entryDy=0;fontSize=12;startSize=8;endSize=8;" edge="1" parent="1" source="b2e5XpM2e_VBH4c9PTkn-17" target="b2e5XpM2e_VBH4c9PTkn-21">
          <mxGeometry relative="1" as="geometry" />
        </mxCell>
        <mxCell id="b2e5XpM2e_VBH4c9PTkn-16" value="LF&lt;br&gt;end" style="edgeStyle=none;curved=1;rounded=0;orthogonalLoop=1;jettySize=auto;html=1;entryX=1;entryY=0.5;entryDx=0;entryDy=0;fontSize=12;startSize=8;endSize=8;" edge="1" parent="1" source="b2e5XpM2e_VBH4c9PTkn-17" target="b2e5XpM2e_VBH4c9PTkn-22">
          <mxGeometry relative="1" as="geometry" />
        </mxCell>
        <mxCell id="b2e5XpM2e_VBH4c9PTkn-24" value="&lt;div&gt;&lt;br&gt;&lt;/div&gt;&lt;div&gt;&lt;br&gt;&lt;/div&gt;" style="edgeStyle=orthogonalEdgeStyle;rounded=0;orthogonalLoop=1;jettySize=auto;html=1;" edge="1" parent="1" source="b2e5XpM2e_VBH4c9PTkn-17" target="b2e5XpM2e_VBH4c9PTkn-5">
          <mxGeometry relative="1" as="geometry">
            <Array as="points">
              <mxPoint x="606" y="841" />
              <mxPoint x="606" y="841" />
            </Array>
          </mxGeometry>
        </mxCell>
        <mxCell id="b2e5XpM2e_VBH4c9PTkn-17" value="ifStr1" style="ellipse;whiteSpace=wrap;html=1;aspect=fixed;" vertex="1" parent="1">
          <mxGeometry x="592" y="882" width="80" height="80" as="geometry" />
        </mxCell>
        <mxCell id="b2e5XpM2e_VBH4c9PTkn-18" value="other&lt;div&gt;next&lt;br&gt;expressionBuffer&lt;/div&gt;" style="edgeStyle=none;curved=1;rounded=0;orthogonalLoop=1;jettySize=auto;html=1;fontSize=12;startSize=8;endSize=8;" edge="1" parent="1" source="b2e5XpM2e_VBH4c9PTkn-17" target="b2e5XpM2e_VBH4c9PTkn-17">
          <mxGeometry relative="1" as="geometry">
            <Array as="points">
              <mxPoint x="530" y="961" />
            </Array>
          </mxGeometry>
        </mxCell>
        <mxCell id="b2e5XpM2e_VBH4c9PTkn-19" value="other&lt;br&gt;next&lt;div&gt;expressionBuffer&lt;/div&gt;" style="edgeStyle=none;curved=1;rounded=0;orthogonalLoop=1;jettySize=auto;html=1;entryX=1;entryY=0.5;entryDx=0;entryDy=0;fontSize=12;startSize=8;endSize=8;exitX=0.975;exitY=0.425;exitDx=0;exitDy=0;exitPerimeter=0;" edge="1" parent="1" source="b2e5XpM2e_VBH4c9PTkn-21" target="b2e5XpM2e_VBH4c9PTkn-17">
          <mxGeometry x="-0.2442" y="31" relative="1" as="geometry">
            <Array as="points">
              <mxPoint x="779" y="989" />
            </Array>
            <mxPoint y="-1" as="offset" />
          </mxGeometry>
        </mxCell>
        <mxCell id="b2e5XpM2e_VBH4c9PTkn-20" value="LF&lt;br&gt;end" style="edgeStyle=none;curved=1;rounded=0;orthogonalLoop=1;jettySize=auto;html=1;fontSize=12;startSize=8;endSize=8;" edge="1" parent="1" source="b2e5XpM2e_VBH4c9PTkn-21" target="b2e5XpM2e_VBH4c9PTkn-22">
          <mxGeometry x="-0.0049" y="-13" relative="1" as="geometry">
            <Array as="points">
              <mxPoint x="470" y="976" />
            </Array>
            <mxPoint as="offset" />
          </mxGeometry>
        </mxCell>
        <mxCell id="b2e5XpM2e_VBH4c9PTkn-21" value="ifStr2" style="ellipse;whiteSpace=wrap;html=1;aspect=fixed;" vertex="1" parent="1">
          <mxGeometry x="590" y="1056" width="80" height="80" as="geometry" />
        </mxCell>
        <mxCell id="b2e5XpM2e_VBH4c9PTkn-22" value="to error" style="rounded=1;whiteSpace=wrap;html=1;" vertex="1" parent="1">
          <mxGeometry x="335" y="820" width="120" height="32" as="geometry" />
        </mxCell>
        <mxCell id="b2e5XpM2e_VBH4c9PTkn-28" style="rounded=0;orthogonalLoop=1;jettySize=auto;html=1;" edge="1" parent="1" source="b2e5XpM2e_VBH4c9PTkn-26" target="b2e5XpM2e_VBH4c9PTkn-5">
          <mxGeometry relative="1" as="geometry">
            <Array as="points">
              <mxPoint x="696" y="831" />
            </Array>
          </mxGeometry>
        </mxCell>
        <mxCell id="b2e5XpM2e_VBH4c9PTkn-26" value="bracCount--" style="rounded=1;whiteSpace=wrap;html=1;" vertex="1" parent="1">
          <mxGeometry x="872" y="869" width="120" height="60" as="geometry" />
        </mxCell>
        <mxCell id="b2e5XpM2e_VBH4c9PTkn-34" value="" style="edgeStyle=orthogonalEdgeStyle;rounded=0;orthogonalLoop=1;jettySize=auto;html=1;" edge="1" parent="1" source="b2e5XpM2e_VBH4c9PTkn-30" target="b2e5XpM2e_VBH4c9PTkn-33">
          <mxGeometry relative="1" as="geometry" />
        </mxCell>
        <mxCell id="b2e5XpM2e_VBH4c9PTkn-30" value="※if,elif,elseを考慮&lt;br&gt;doRun=expressionAnalizer(expressionBuffer)&lt;br&gt;clear expressionBuffer" style="rounded=1;whiteSpace=wrap;html=1;" vertex="1" parent="1">
          <mxGeometry x="786" y="521" width="278" height="60" as="geometry" />
        </mxCell>
        <mxCell id="b2e5XpM2e_VBH4c9PTkn-40" value="{&lt;br&gt;next" style="edgeStyle=orthogonalEdgeStyle;rounded=0;orthogonalLoop=1;jettySize=auto;html=1;" edge="1" parent="1" source="b2e5XpM2e_VBH4c9PTkn-33" target="b2e5XpM2e_VBH4c9PTkn-41">
          <mxGeometry relative="1" as="geometry" />
        </mxCell>
        <mxCell id="b2e5XpM2e_VBH4c9PTkn-85" value="end" style="edgeStyle=orthogonalEdgeStyle;rounded=0;orthogonalLoop=1;jettySize=auto;html=1;" edge="1" parent="1" source="b2e5XpM2e_VBH4c9PTkn-33" target="b2e5XpM2e_VBH4c9PTkn-84">
          <mxGeometry relative="1" as="geometry" />
        </mxCell>
        <mxCell id="b2e5XpM2e_VBH4c9PTkn-33" value="ifRun0" style="ellipse;whiteSpace=wrap;html=1;aspect=fixed;" vertex="1" parent="1">
          <mxGeometry x="1148" y="667" width="80" height="80" as="geometry" />
        </mxCell>
        <mxCell id="b2e5XpM2e_VBH4c9PTkn-38" value="white space&lt;br&gt;next" style="edgeStyle=orthogonalEdgeStyle;rounded=0;orthogonalLoop=1;jettySize=auto;html=1;" edge="1" parent="1" source="b2e5XpM2e_VBH4c9PTkn-33" target="b2e5XpM2e_VBH4c9PTkn-33">
          <mxGeometry relative="1" as="geometry">
            <Array as="points">
              <mxPoint x="1290" y="733" />
            </Array>
          </mxGeometry>
        </mxCell>
        <mxCell id="b2e5XpM2e_VBH4c9PTkn-80" style="edgeStyle=orthogonalEdgeStyle;rounded=0;orthogonalLoop=1;jettySize=auto;html=1;" edge="1" parent="1" source="b2e5XpM2e_VBH4c9PTkn-41" target="b2e5XpM2e_VBH4c9PTkn-66">
          <mxGeometry relative="1" as="geometry" />
        </mxCell>
        <mxCell id="b2e5XpM2e_VBH4c9PTkn-41" value="bracCount=1" style="rounded=1;whiteSpace=wrap;html=1;" vertex="1" parent="1">
          <mxGeometry x="1128" y="807" width="120" height="36" as="geometry" />
        </mxCell>
        <mxCell id="b2e5XpM2e_VBH4c9PTkn-62" value="&lt;div&gt;{&lt;/div&gt;&lt;div&gt;next&lt;br&gt;&lt;div&gt;expressionBuffer&lt;br&gt;&lt;/div&gt;&lt;/div&gt;" style="edgeStyle=orthogonalEdgeStyle;rounded=0;orthogonalLoop=1;jettySize=auto;html=1;" edge="1" parent="1" source="b2e5XpM2e_VBH4c9PTkn-66" target="b2e5XpM2e_VBH4c9PTkn-68">
          <mxGeometry relative="1" as="geometry">
            <Array as="points">
              <mxPoint x="1405" y="915" />
              <mxPoint x="1405" y="915" />
            </Array>
          </mxGeometry>
        </mxCell>
        <mxCell id="b2e5XpM2e_VBH4c9PTkn-63" value="&quot;&lt;div&gt;next&lt;/div&gt;&lt;div&gt;expressionBuffer&lt;/div&gt;" style="edgeStyle=orthogonalEdgeStyle;rounded=0;orthogonalLoop=1;jettySize=auto;html=1;" edge="1" parent="1" source="b2e5XpM2e_VBH4c9PTkn-66" target="b2e5XpM2e_VBH4c9PTkn-72">
          <mxGeometry x="-0.0693" y="-22" relative="1" as="geometry">
            <Array as="points">
              <mxPoint x="1329" y="1009" />
              <mxPoint x="1329" y="1009" />
            </Array>
            <mxPoint as="offset" />
          </mxGeometry>
        </mxCell>
        <mxCell id="b2e5XpM2e_VBH4c9PTkn-64" value="end" style="edgeStyle=orthogonalEdgeStyle;rounded=0;orthogonalLoop=1;jettySize=auto;html=1;" edge="1" parent="1" source="b2e5XpM2e_VBH4c9PTkn-66" target="b2e5XpM2e_VBH4c9PTkn-77">
          <mxGeometry relative="1" as="geometry" />
        </mxCell>
        <mxCell id="b2e5XpM2e_VBH4c9PTkn-65" value="&lt;div&gt;}&lt;/div&gt;&lt;div&gt;next&lt;br&gt;&lt;div&gt;expressionBuffer&lt;br&gt;&lt;/div&gt;&lt;/div&gt;" style="rounded=0;orthogonalLoop=1;jettySize=auto;html=1;" edge="1" parent="1" source="b2e5XpM2e_VBH4c9PTkn-66" target="b2e5XpM2e_VBH4c9PTkn-79">
          <mxGeometry x="0.0414" y="11" relative="1" as="geometry">
            <mxPoint as="offset" />
          </mxGeometry>
        </mxCell>
        <mxCell id="b2e5XpM2e_VBH4c9PTkn-66" value="ifRun1" style="ellipse;whiteSpace=wrap;html=1;aspect=fixed;" vertex="1" parent="1">
          <mxGeometry x="1271" y="890" width="80" height="80" as="geometry" />
        </mxCell>
        <mxCell id="b2e5XpM2e_VBH4c9PTkn-67" value="" style="edgeStyle=orthogonalEdgeStyle;rounded=0;orthogonalLoop=1;jettySize=auto;html=1;" edge="1" parent="1" source="b2e5XpM2e_VBH4c9PTkn-68" target="b2e5XpM2e_VBH4c9PTkn-66">
          <mxGeometry relative="1" as="geometry">
            <Array as="points">
              <mxPoint x="1403" y="939" />
              <mxPoint x="1403" y="939" />
            </Array>
          </mxGeometry>
        </mxCell>
        <mxCell id="b2e5XpM2e_VBH4c9PTkn-68" value="bracCount++" style="rounded=1;whiteSpace=wrap;html=1;" vertex="1" parent="1">
          <mxGeometry x="1513" y="900" width="120" height="60" as="geometry" />
        </mxCell>
        <mxCell id="b2e5XpM2e_VBH4c9PTkn-69" value="\&lt;div&gt;next&lt;/div&gt;&lt;div&gt;expressionBuffer&lt;/div&gt;" style="edgeStyle=none;curved=1;rounded=0;orthogonalLoop=1;jettySize=auto;html=1;entryX=0.5;entryY=0;entryDx=0;entryDy=0;fontSize=12;startSize=8;endSize=8;" edge="1" parent="1" source="b2e5XpM2e_VBH4c9PTkn-72" target="b2e5XpM2e_VBH4c9PTkn-76">
          <mxGeometry relative="1" as="geometry" />
        </mxCell>
        <mxCell id="b2e5XpM2e_VBH4c9PTkn-70" value="LF&lt;br&gt;end" style="edgeStyle=none;curved=1;rounded=0;orthogonalLoop=1;jettySize=auto;html=1;entryX=1;entryY=0.5;entryDx=0;entryDy=0;fontSize=12;startSize=8;endSize=8;" edge="1" parent="1" source="b2e5XpM2e_VBH4c9PTkn-72" target="b2e5XpM2e_VBH4c9PTkn-77">
          <mxGeometry relative="1" as="geometry" />
        </mxCell>
        <mxCell id="b2e5XpM2e_VBH4c9PTkn-71" value="&lt;div&gt;&lt;br&gt;&lt;/div&gt;&lt;div&gt;&lt;br&gt;&lt;/div&gt;" style="edgeStyle=orthogonalEdgeStyle;rounded=0;orthogonalLoop=1;jettySize=auto;html=1;" edge="1" parent="1" source="b2e5XpM2e_VBH4c9PTkn-72" target="b2e5XpM2e_VBH4c9PTkn-66">
          <mxGeometry relative="1" as="geometry">
            <Array as="points">
              <mxPoint x="1285" y="1007" />
              <mxPoint x="1285" y="1007" />
            </Array>
          </mxGeometry>
        </mxCell>
        <mxCell id="b2e5XpM2e_VBH4c9PTkn-72" value="ifStr3" style="ellipse;whiteSpace=wrap;html=1;aspect=fixed;" vertex="1" parent="1">
          <mxGeometry x="1271" y="1048" width="80" height="80" as="geometry" />
        </mxCell>
        <mxCell id="b2e5XpM2e_VBH4c9PTkn-73" value="other&lt;div&gt;next&lt;br&gt;expressionBuffer&lt;/div&gt;" style="edgeStyle=none;curved=1;rounded=0;orthogonalLoop=1;jettySize=auto;html=1;fontSize=12;startSize=8;endSize=8;" edge="1" parent="1" source="b2e5XpM2e_VBH4c9PTkn-72" target="b2e5XpM2e_VBH4c9PTkn-72">
          <mxGeometry relative="1" as="geometry">
            <Array as="points">
              <mxPoint x="1209" y="1127" />
            </Array>
          </mxGeometry>
        </mxCell>
        <mxCell id="b2e5XpM2e_VBH4c9PTkn-74" value="other&lt;br&gt;next&lt;div&gt;expressionBuffer&lt;/div&gt;" style="edgeStyle=none;curved=1;rounded=0;orthogonalLoop=1;jettySize=auto;html=1;entryX=1;entryY=0.5;entryDx=0;entryDy=0;fontSize=12;startSize=8;endSize=8;exitX=0.975;exitY=0.425;exitDx=0;exitDy=0;exitPerimeter=0;" edge="1" parent="1" source="b2e5XpM2e_VBH4c9PTkn-76" target="b2e5XpM2e_VBH4c9PTkn-72">
          <mxGeometry x="-0.2442" y="31" relative="1" as="geometry">
            <Array as="points">
              <mxPoint x="1458" y="1155" />
            </Array>
            <mxPoint y="-1" as="offset" />
          </mxGeometry>
        </mxCell>
        <mxCell id="b2e5XpM2e_VBH4c9PTkn-75" value="LF&lt;br&gt;end" style="edgeStyle=none;curved=1;rounded=0;orthogonalLoop=1;jettySize=auto;html=1;fontSize=12;startSize=8;endSize=8;" edge="1" parent="1" source="b2e5XpM2e_VBH4c9PTkn-76" target="b2e5XpM2e_VBH4c9PTkn-77">
          <mxGeometry x="-0.0049" y="-13" relative="1" as="geometry">
            <Array as="points">
              <mxPoint x="1149" y="1142" />
            </Array>
            <mxPoint as="offset" />
          </mxGeometry>
        </mxCell>
        <mxCell id="b2e5XpM2e_VBH4c9PTkn-76" value="ifStr4" style="ellipse;whiteSpace=wrap;html=1;aspect=fixed;" vertex="1" parent="1">
          <mxGeometry x="1269" y="1222" width="80" height="80" as="geometry" />
        </mxCell>
        <mxCell id="b2e5XpM2e_VBH4c9PTkn-77" value="to error" style="rounded=1;whiteSpace=wrap;html=1;" vertex="1" parent="1">
          <mxGeometry x="1014" y="986" width="120" height="32" as="geometry" />
        </mxCell>
        <mxCell id="b2e5XpM2e_VBH4c9PTkn-78" style="rounded=0;orthogonalLoop=1;jettySize=auto;html=1;" edge="1" parent="1" source="b2e5XpM2e_VBH4c9PTkn-79" target="b2e5XpM2e_VBH4c9PTkn-66">
          <mxGeometry relative="1" as="geometry">
            <Array as="points">
              <mxPoint x="1375" y="997" />
            </Array>
          </mxGeometry>
        </mxCell>
        <mxCell id="b2e5XpM2e_VBH4c9PTkn-79" value="bracCount--" style="rounded=1;whiteSpace=wrap;html=1;" vertex="1" parent="1">
          <mxGeometry x="1551" y="1035" width="120" height="60" as="geometry" />
        </mxCell>
        <mxCell id="b2e5XpM2e_VBH4c9PTkn-81" value="bracCount&amp;lt;=0" style="edgeStyle=orthogonalEdgeStyle;rounded=0;orthogonalLoop=1;jettySize=auto;html=1;" edge="1" parent="1" target="b2e5XpM2e_VBH4c9PTkn-82" source="b2e5XpM2e_VBH4c9PTkn-66">
          <mxGeometry x="-0.4601" relative="1" as="geometry">
            <mxPoint x="1349" y="871" as="sourcePoint" />
            <Array as="points">
              <mxPoint x="1421" y="894" />
              <mxPoint x="1421" y="759" />
              <mxPoint x="1546" y="759" />
            </Array>
            <mxPoint as="offset" />
          </mxGeometry>
        </mxCell>
        <mxCell id="b2e5XpM2e_VBH4c9PTkn-83" style="edgeStyle=orthogonalEdgeStyle;rounded=0;orthogonalLoop=1;jettySize=auto;html=1;" edge="1" parent="1" source="b2e5XpM2e_VBH4c9PTkn-82" target="uNL0XxB8N9niCBaAOZDF-1">
          <mxGeometry relative="1" as="geometry">
            <Array as="points">
              <mxPoint x="1590" y="38" />
            </Array>
          </mxGeometry>
        </mxCell>
        <mxCell id="b2e5XpM2e_VBH4c9PTkn-82" value="if (doRun) run expressionBuffer&lt;br&gt;clear expressionBuffer" style="rounded=1;whiteSpace=wrap;html=1;" vertex="1" parent="1">
          <mxGeometry x="1477" y="658" width="239" height="60" as="geometry" />
        </mxCell>
        <mxCell id="b2e5XpM2e_VBH4c9PTkn-84" value="to error" style="rounded=1;whiteSpace=wrap;html=1;" vertex="1" parent="1">
          <mxGeometry x="992" y="755" width="120" height="32" as="geometry" />
        </mxCell>
        <mxCell id="b2e5XpM2e_VBH4c9PTkn-92" value="upd0" style="ellipse;whiteSpace=wrap;html=1;aspect=fixed;" vertex="1" parent="1">
          <mxGeometry x="-1443" y="572" width="80" height="80" as="geometry" />
        </mxCell>
        <mxCell id="b2e5XpM2e_VBH4c9PTkn-95" value=";&lt;div&gt;next&lt;/div&gt;" style="edgeStyle=none;curved=1;rounded=0;orthogonalLoop=1;jettySize=auto;html=1;fontSize=12;startSize=8;endSize=8;" edge="1" parent="1" target="b2e5XpM2e_VBH4c9PTkn-96" source="b2e5XpM2e_VBH4c9PTkn-92">
          <mxGeometry relative="1" as="geometry">
            <mxPoint x="-1446" y="330.5" as="targetPoint" />
            <mxPoint x="-1521" y="333.5" as="sourcePoint" />
          </mxGeometry>
        </mxCell>
        <mxCell id="b2e5XpM2e_VBH4c9PTkn-100" style="edgeStyle=orthogonalEdgeStyle;rounded=0;orthogonalLoop=1;jettySize=auto;html=1;" edge="1" parent="1" source="b2e5XpM2e_VBH4c9PTkn-96" target="uNL0XxB8N9niCBaAOZDF-1">
          <mxGeometry relative="1" as="geometry">
            <mxPoint x="-1021.3846153846157" y="13.846153846153811" as="targetPoint" />
            <Array as="points">
              <mxPoint x="-1558" y="57" />
            </Array>
          </mxGeometry>
        </mxCell>
        <mxCell id="b2e5XpM2e_VBH4c9PTkn-96" value="update var (branchBuffer &amp;lt;- expressionAnalizer(expressionBuffer))&lt;br&gt;clear branchBuffer,expressionBuffer" style="rounded=1;whiteSpace=wrap;html=1;" vertex="1" parent="1">
          <mxGeometry x="-1791" y="408" width="432" height="45" as="geometry" />
        </mxCell>
        <mxCell id="b2e5XpM2e_VBH4c9PTkn-102" value="&quot;&lt;div&gt;next&lt;br&gt;expressionBuffer&lt;/div&gt;" style="edgeStyle=none;curved=1;rounded=0;orthogonalLoop=1;jettySize=auto;html=1;fontSize=12;startSize=8;endSize=8;" edge="1" parent="1" source="b2e5XpM2e_VBH4c9PTkn-92" target="b2e5XpM2e_VBH4c9PTkn-109">
          <mxGeometry relative="1" as="geometry">
            <mxPoint x="-1421" y="822.5" as="sourcePoint" />
          </mxGeometry>
        </mxCell>
        <mxCell id="b2e5XpM2e_VBH4c9PTkn-103" value="end" style="edgeStyle=none;curved=1;rounded=0;orthogonalLoop=1;jettySize=auto;html=1;fontSize=12;startSize=8;endSize=8;entryX=1;entryY=0;entryDx=0;entryDy=0;" edge="1" parent="1" source="b2e5XpM2e_VBH4c9PTkn-92" target="b2e5XpM2e_VBH4c9PTkn-115">
          <mxGeometry relative="1" as="geometry">
            <mxPoint x="-1449.2842712474621" y="810.7842712474617" as="sourcePoint" />
          </mxGeometry>
        </mxCell>
        <mxCell id="b2e5XpM2e_VBH4c9PTkn-106" value="other&lt;br&gt;next&lt;br&gt;expressionBuffer" style="edgeStyle=none;curved=1;rounded=0;orthogonalLoop=1;jettySize=auto;html=1;fontSize=12;startSize=8;endSize=8;" edge="1" parent="1" source="b2e5XpM2e_VBH4c9PTkn-92" target="b2e5XpM2e_VBH4c9PTkn-92">
          <mxGeometry relative="1" as="geometry">
            <Array as="points">
              <mxPoint x="-1511" y="672" />
            </Array>
          </mxGeometry>
        </mxCell>
        <mxCell id="b2e5XpM2e_VBH4c9PTkn-107" value="\&lt;div&gt;next&lt;/div&gt;&lt;div&gt;expressionBuffer&lt;/div&gt;" style="edgeStyle=none;curved=1;rounded=0;orthogonalLoop=1;jettySize=auto;html=1;entryX=0.5;entryY=0;entryDx=0;entryDy=0;fontSize=12;startSize=8;endSize=8;" edge="1" parent="1" source="b2e5XpM2e_VBH4c9PTkn-109" target="b2e5XpM2e_VBH4c9PTkn-113">
          <mxGeometry relative="1" as="geometry" />
        </mxCell>
        <mxCell id="b2e5XpM2e_VBH4c9PTkn-108" value="LF&lt;br&gt;end" style="edgeStyle=none;curved=1;rounded=0;orthogonalLoop=1;jettySize=auto;html=1;entryX=1;entryY=0.5;entryDx=0;entryDy=0;fontSize=12;startSize=8;endSize=8;" edge="1" parent="1" source="b2e5XpM2e_VBH4c9PTkn-109" target="b2e5XpM2e_VBH4c9PTkn-115">
          <mxGeometry relative="1" as="geometry" />
        </mxCell>
        <mxCell id="b2e5XpM2e_VBH4c9PTkn-109" value="upd1" style="ellipse;whiteSpace=wrap;html=1;aspect=fixed;" vertex="1" parent="1">
          <mxGeometry x="-1461" y="932.5" width="80" height="80" as="geometry" />
        </mxCell>
        <mxCell id="b2e5XpM2e_VBH4c9PTkn-110" value="other&lt;div&gt;next&lt;br&gt;expressionBuffer&lt;/div&gt;" style="edgeStyle=none;curved=1;rounded=0;orthogonalLoop=1;jettySize=auto;html=1;fontSize=12;startSize=8;endSize=8;" edge="1" parent="1" source="b2e5XpM2e_VBH4c9PTkn-109" target="b2e5XpM2e_VBH4c9PTkn-109">
          <mxGeometry relative="1" as="geometry">
            <Array as="points">
              <mxPoint x="-1523" y="1011.5" />
            </Array>
          </mxGeometry>
        </mxCell>
        <mxCell id="b2e5XpM2e_VBH4c9PTkn-111" value="other&lt;br&gt;next&lt;div&gt;expressionBuffer&lt;/div&gt;" style="edgeStyle=none;curved=1;rounded=0;orthogonalLoop=1;jettySize=auto;html=1;entryX=1;entryY=0.5;entryDx=0;entryDy=0;fontSize=12;startSize=8;endSize=8;exitX=0.975;exitY=0.425;exitDx=0;exitDy=0;exitPerimeter=0;" edge="1" parent="1" source="b2e5XpM2e_VBH4c9PTkn-113" target="b2e5XpM2e_VBH4c9PTkn-109">
          <mxGeometry x="-0.2442" y="31" relative="1" as="geometry">
            <Array as="points">
              <mxPoint x="-1274" y="1039.5" />
            </Array>
            <mxPoint y="-1" as="offset" />
          </mxGeometry>
        </mxCell>
        <mxCell id="b2e5XpM2e_VBH4c9PTkn-112" value="LF&lt;br&gt;end" style="edgeStyle=none;curved=1;rounded=0;orthogonalLoop=1;jettySize=auto;html=1;fontSize=12;startSize=8;endSize=8;" edge="1" parent="1" source="b2e5XpM2e_VBH4c9PTkn-113" target="b2e5XpM2e_VBH4c9PTkn-115">
          <mxGeometry x="-0.0049" y="-13" relative="1" as="geometry">
            <Array as="points">
              <mxPoint x="-1583" y="1026.5" />
            </Array>
            <mxPoint as="offset" />
          </mxGeometry>
        </mxCell>
        <mxCell id="b2e5XpM2e_VBH4c9PTkn-113" value="upd2" style="ellipse;whiteSpace=wrap;html=1;aspect=fixed;" vertex="1" parent="1">
          <mxGeometry x="-1463" y="1106.5" width="80" height="80" as="geometry" />
        </mxCell>
        <mxCell id="b2e5XpM2e_VBH4c9PTkn-114" value="&quot;&lt;div&gt;next&lt;/div&gt;&lt;div&gt;expressionBuffer&lt;/div&gt;" style="edgeStyle=none;curved=1;rounded=0;orthogonalLoop=1;jettySize=auto;html=1;fontSize=12;startSize=8;endSize=8;exitX=0.95;exitY=0.288;exitDx=0;exitDy=0;exitPerimeter=0;" edge="1" parent="1" source="b2e5XpM2e_VBH4c9PTkn-109" target="b2e5XpM2e_VBH4c9PTkn-92">
          <mxGeometry x="0.3807" y="31" relative="1" as="geometry">
            <Array as="points">
              <mxPoint x="-1248" y="861.5" />
            </Array>
            <mxPoint as="offset" />
            <mxPoint x="-1383" y="790.5" as="targetPoint" />
          </mxGeometry>
        </mxCell>
        <mxCell id="b2e5XpM2e_VBH4c9PTkn-115" value="to error" style="rounded=1;whiteSpace=wrap;html=1;" vertex="1" parent="1">
          <mxGeometry x="-1718" y="870.5" width="120" height="32" as="geometry" />
        </mxCell>
        <mxCell id="b2e5XpM2e_VBH4c9PTkn-116" value="loop0" style="ellipse;whiteSpace=wrap;html=1;aspect=fixed;" vertex="1" parent="1">
          <mxGeometry x="1838" y="575" width="80" height="80" as="geometry" />
        </mxCell>
        <mxCell id="b2e5XpM2e_VBH4c9PTkn-119" value="{&lt;br&gt;next" style="edgeStyle=orthogonalEdgeStyle;rounded=0;orthogonalLoop=1;jettySize=auto;html=1;" edge="1" parent="1" source="b2e5XpM2e_VBH4c9PTkn-116" target="b2e5XpM2e_VBH4c9PTkn-124">
          <mxGeometry relative="1" as="geometry" />
        </mxCell>
        <mxCell id="b2e5XpM2e_VBH4c9PTkn-120" value="end" style="edgeStyle=orthogonalEdgeStyle;rounded=0;orthogonalLoop=1;jettySize=auto;html=1;" edge="1" parent="1" source="b2e5XpM2e_VBH4c9PTkn-116" target="b2e5XpM2e_VBH4c9PTkn-145">
          <mxGeometry relative="1" as="geometry">
            <Array as="points">
              <mxPoint x="1851" y="702" />
              <mxPoint x="1810" y="702" />
            </Array>
          </mxGeometry>
        </mxCell>
        <mxCell id="b2e5XpM2e_VBH4c9PTkn-122" value="white space&lt;br&gt;next" style="edgeStyle=orthogonalEdgeStyle;rounded=0;orthogonalLoop=1;jettySize=auto;html=1;" edge="1" parent="1" source="b2e5XpM2e_VBH4c9PTkn-116" target="b2e5XpM2e_VBH4c9PTkn-116">
          <mxGeometry relative="1" as="geometry">
            <Array as="points">
              <mxPoint x="1958" y="584" />
            </Array>
          </mxGeometry>
        </mxCell>
        <mxCell id="b2e5XpM2e_VBH4c9PTkn-123" style="edgeStyle=orthogonalEdgeStyle;rounded=0;orthogonalLoop=1;jettySize=auto;html=1;" edge="1" parent="1" source="b2e5XpM2e_VBH4c9PTkn-124" target="b2e5XpM2e_VBH4c9PTkn-129">
          <mxGeometry relative="1" as="geometry" />
        </mxCell>
        <mxCell id="b2e5XpM2e_VBH4c9PTkn-124" value="bracCount=1" style="rounded=1;whiteSpace=wrap;html=1;" vertex="1" parent="1">
          <mxGeometry x="1904" y="801" width="120" height="36" as="geometry" />
        </mxCell>
        <mxCell id="b2e5XpM2e_VBH4c9PTkn-125" value="&lt;div&gt;{&lt;/div&gt;&lt;div&gt;next&lt;br&gt;&lt;div&gt;expressionBuffer&lt;br&gt;&lt;/div&gt;&lt;/div&gt;" style="edgeStyle=orthogonalEdgeStyle;rounded=0;orthogonalLoop=1;jettySize=auto;html=1;" edge="1" parent="1" source="b2e5XpM2e_VBH4c9PTkn-129" target="b2e5XpM2e_VBH4c9PTkn-131">
          <mxGeometry relative="1" as="geometry">
            <Array as="points">
              <mxPoint x="2181" y="909" />
              <mxPoint x="2181" y="909" />
            </Array>
          </mxGeometry>
        </mxCell>
        <mxCell id="b2e5XpM2e_VBH4c9PTkn-126" value="&quot;&lt;div&gt;next&lt;/div&gt;&lt;div&gt;expressionBuffer&lt;/div&gt;" style="edgeStyle=orthogonalEdgeStyle;rounded=0;orthogonalLoop=1;jettySize=auto;html=1;" edge="1" parent="1" source="b2e5XpM2e_VBH4c9PTkn-129" target="b2e5XpM2e_VBH4c9PTkn-135">
          <mxGeometry x="-0.0693" y="-22" relative="1" as="geometry">
            <Array as="points">
              <mxPoint x="2105" y="1003" />
              <mxPoint x="2105" y="1003" />
            </Array>
            <mxPoint as="offset" />
          </mxGeometry>
        </mxCell>
        <mxCell id="b2e5XpM2e_VBH4c9PTkn-127" value="end" style="edgeStyle=orthogonalEdgeStyle;rounded=0;orthogonalLoop=1;jettySize=auto;html=1;" edge="1" parent="1" source="b2e5XpM2e_VBH4c9PTkn-129" target="b2e5XpM2e_VBH4c9PTkn-140">
          <mxGeometry relative="1" as="geometry" />
        </mxCell>
        <mxCell id="b2e5XpM2e_VBH4c9PTkn-128" value="&lt;div&gt;}&lt;/div&gt;&lt;div&gt;next&lt;br&gt;&lt;div&gt;expressionBuffer&lt;br&gt;&lt;/div&gt;&lt;/div&gt;" style="rounded=0;orthogonalLoop=1;jettySize=auto;html=1;" edge="1" parent="1" source="b2e5XpM2e_VBH4c9PTkn-129" target="b2e5XpM2e_VBH4c9PTkn-142">
          <mxGeometry x="0.0414" y="11" relative="1" as="geometry">
            <mxPoint as="offset" />
          </mxGeometry>
        </mxCell>
        <mxCell id="b2e5XpM2e_VBH4c9PTkn-129" value="loop1" style="ellipse;whiteSpace=wrap;html=1;aspect=fixed;" vertex="1" parent="1">
          <mxGeometry x="2047" y="884" width="80" height="80" as="geometry" />
        </mxCell>
        <mxCell id="b2e5XpM2e_VBH4c9PTkn-130" value="" style="edgeStyle=orthogonalEdgeStyle;rounded=0;orthogonalLoop=1;jettySize=auto;html=1;" edge="1" parent="1" source="b2e5XpM2e_VBH4c9PTkn-131" target="b2e5XpM2e_VBH4c9PTkn-129">
          <mxGeometry relative="1" as="geometry">
            <Array as="points">
              <mxPoint x="2179" y="933" />
              <mxPoint x="2179" y="933" />
            </Array>
          </mxGeometry>
        </mxCell>
        <mxCell id="b2e5XpM2e_VBH4c9PTkn-131" value="bracCount++" style="rounded=1;whiteSpace=wrap;html=1;" vertex="1" parent="1">
          <mxGeometry x="2289" y="894" width="120" height="60" as="geometry" />
        </mxCell>
        <mxCell id="b2e5XpM2e_VBH4c9PTkn-132" value="\&lt;div&gt;next&lt;/div&gt;&lt;div&gt;expressionBuffer&lt;/div&gt;" style="edgeStyle=none;curved=1;rounded=0;orthogonalLoop=1;jettySize=auto;html=1;entryX=0.5;entryY=0;entryDx=0;entryDy=0;fontSize=12;startSize=8;endSize=8;" edge="1" parent="1" source="b2e5XpM2e_VBH4c9PTkn-135" target="b2e5XpM2e_VBH4c9PTkn-139">
          <mxGeometry relative="1" as="geometry" />
        </mxCell>
        <mxCell id="b2e5XpM2e_VBH4c9PTkn-133" value="LF&lt;br&gt;end" style="edgeStyle=none;curved=1;rounded=0;orthogonalLoop=1;jettySize=auto;html=1;entryX=1;entryY=0.5;entryDx=0;entryDy=0;fontSize=12;startSize=8;endSize=8;" edge="1" parent="1" source="b2e5XpM2e_VBH4c9PTkn-135" target="b2e5XpM2e_VBH4c9PTkn-140">
          <mxGeometry relative="1" as="geometry" />
        </mxCell>
        <mxCell id="b2e5XpM2e_VBH4c9PTkn-134" value="&lt;div&gt;&lt;br&gt;&lt;/div&gt;&lt;div&gt;&lt;br&gt;&lt;/div&gt;" style="edgeStyle=orthogonalEdgeStyle;rounded=0;orthogonalLoop=1;jettySize=auto;html=1;" edge="1" parent="1" source="b2e5XpM2e_VBH4c9PTkn-135" target="b2e5XpM2e_VBH4c9PTkn-129">
          <mxGeometry relative="1" as="geometry">
            <Array as="points">
              <mxPoint x="2061" y="1001" />
              <mxPoint x="2061" y="1001" />
            </Array>
          </mxGeometry>
        </mxCell>
        <mxCell id="b2e5XpM2e_VBH4c9PTkn-135" value="loop2" style="ellipse;whiteSpace=wrap;html=1;aspect=fixed;" vertex="1" parent="1">
          <mxGeometry x="2047" y="1042" width="80" height="80" as="geometry" />
        </mxCell>
        <mxCell id="b2e5XpM2e_VBH4c9PTkn-136" value="other&lt;div&gt;next&lt;br&gt;expressionBuffer&lt;/div&gt;" style="edgeStyle=none;curved=1;rounded=0;orthogonalLoop=1;jettySize=auto;html=1;fontSize=12;startSize=8;endSize=8;" edge="1" parent="1" source="b2e5XpM2e_VBH4c9PTkn-135" target="b2e5XpM2e_VBH4c9PTkn-135">
          <mxGeometry relative="1" as="geometry">
            <Array as="points">
              <mxPoint x="1985" y="1121" />
            </Array>
          </mxGeometry>
        </mxCell>
        <mxCell id="b2e5XpM2e_VBH4c9PTkn-137" value="other&lt;br&gt;next&lt;div&gt;expressionBuffer&lt;/div&gt;" style="edgeStyle=none;curved=1;rounded=0;orthogonalLoop=1;jettySize=auto;html=1;entryX=1;entryY=0.5;entryDx=0;entryDy=0;fontSize=12;startSize=8;endSize=8;exitX=0.975;exitY=0.425;exitDx=0;exitDy=0;exitPerimeter=0;" edge="1" parent="1" source="b2e5XpM2e_VBH4c9PTkn-139" target="b2e5XpM2e_VBH4c9PTkn-135">
          <mxGeometry x="-0.2442" y="31" relative="1" as="geometry">
            <Array as="points">
              <mxPoint x="2234" y="1149" />
            </Array>
            <mxPoint y="-1" as="offset" />
          </mxGeometry>
        </mxCell>
        <mxCell id="b2e5XpM2e_VBH4c9PTkn-138" value="LF&lt;br&gt;end" style="edgeStyle=none;curved=1;rounded=0;orthogonalLoop=1;jettySize=auto;html=1;fontSize=12;startSize=8;endSize=8;" edge="1" parent="1" source="b2e5XpM2e_VBH4c9PTkn-139" target="b2e5XpM2e_VBH4c9PTkn-140">
          <mxGeometry x="-0.0049" y="-13" relative="1" as="geometry">
            <Array as="points">
              <mxPoint x="1925" y="1136" />
            </Array>
            <mxPoint as="offset" />
          </mxGeometry>
        </mxCell>
        <mxCell id="b2e5XpM2e_VBH4c9PTkn-139" value="loop3" style="ellipse;whiteSpace=wrap;html=1;aspect=fixed;" vertex="1" parent="1">
          <mxGeometry x="2045" y="1216" width="80" height="80" as="geometry" />
        </mxCell>
        <mxCell id="b2e5XpM2e_VBH4c9PTkn-140" value="to error" style="rounded=1;whiteSpace=wrap;html=1;" vertex="1" parent="1">
          <mxGeometry x="1790" y="980" width="120" height="32" as="geometry" />
        </mxCell>
        <mxCell id="b2e5XpM2e_VBH4c9PTkn-141" style="rounded=0;orthogonalLoop=1;jettySize=auto;html=1;" edge="1" parent="1" source="b2e5XpM2e_VBH4c9PTkn-142" target="b2e5XpM2e_VBH4c9PTkn-129">
          <mxGeometry relative="1" as="geometry">
            <Array as="points">
              <mxPoint x="2151" y="991" />
            </Array>
          </mxGeometry>
        </mxCell>
        <mxCell id="b2e5XpM2e_VBH4c9PTkn-142" value="bracCount--" style="rounded=1;whiteSpace=wrap;html=1;" vertex="1" parent="1">
          <mxGeometry x="2327" y="1029" width="120" height="60" as="geometry" />
        </mxCell>
        <mxCell id="b2e5XpM2e_VBH4c9PTkn-143" value="bracCount&amp;lt;=0" style="edgeStyle=orthogonalEdgeStyle;rounded=0;orthogonalLoop=1;jettySize=auto;html=1;" edge="1" parent="1" source="b2e5XpM2e_VBH4c9PTkn-129" target="b2e5XpM2e_VBH4c9PTkn-144">
          <mxGeometry x="-0.4601" relative="1" as="geometry">
            <mxPoint x="2125" y="865" as="sourcePoint" />
            <Array as="points">
              <mxPoint x="2197" y="888" />
              <mxPoint x="2197" y="753" />
              <mxPoint x="2322" y="753" />
            </Array>
            <mxPoint as="offset" />
          </mxGeometry>
        </mxCell>
        <mxCell id="b2e5XpM2e_VBH4c9PTkn-159" style="edgeStyle=orthogonalEdgeStyle;rounded=0;orthogonalLoop=1;jettySize=auto;html=1;" edge="1" parent="1" source="b2e5XpM2e_VBH4c9PTkn-144" target="uNL0XxB8N9niCBaAOZDF-1">
          <mxGeometry relative="1" as="geometry">
            <Array as="points">
              <mxPoint x="2352" y="40" />
            </Array>
          </mxGeometry>
        </mxCell>
        <mxCell id="b2e5XpM2e_VBH4c9PTkn-144" value="loop run expressionBuffer&lt;br&gt;clear expressionBuffer" style="rounded=1;whiteSpace=wrap;html=1;" vertex="1" parent="1">
          <mxGeometry x="2253" y="652" width="239" height="60" as="geometry" />
        </mxCell>
        <mxCell id="b2e5XpM2e_VBH4c9PTkn-145" value="to error" style="rounded=1;whiteSpace=wrap;html=1;" vertex="1" parent="1">
          <mxGeometry x="1762" y="756" width="120" height="32" as="geometry" />
        </mxCell>
        <mxCell id="b2e5XpM2e_VBH4c9PTkn-150" style="edgeStyle=none;curved=1;rounded=0;orthogonalLoop=1;jettySize=auto;html=1;fontSize=12;startSize=8;endSize=8;" edge="1" parent="1" source="b2e5XpM2e_VBH4c9PTkn-151" target="b2e5XpM2e_VBH4c9PTkn-152">
          <mxGeometry relative="1" as="geometry">
            <mxPoint x="2623" y="615" as="targetPoint" />
          </mxGeometry>
        </mxCell>
        <mxCell id="b2e5XpM2e_VBH4c9PTkn-151" value="break" style="ellipse;whiteSpace=wrap;html=1;aspect=fixed;" vertex="1" parent="1">
          <mxGeometry x="2501" y="575" width="80" height="80" as="geometry" />
        </mxCell>
        <mxCell id="b2e5XpM2e_VBH4c9PTkn-152" value="" style="verticalLabelPosition=bottom;verticalAlign=top;html=1;shape=mxgraph.flowchart.or;" vertex="1" parent="1">
          <mxGeometry x="2630" y="591" width="50" height="50" as="geometry" />
        </mxCell>
        <mxCell id="b2e5XpM2e_VBH4c9PTkn-153" style="edgeStyle=none;curved=1;rounded=0;orthogonalLoop=1;jettySize=auto;html=1;fontSize=12;startSize=8;endSize=8;" edge="1" parent="1" source="b2e5XpM2e_VBH4c9PTkn-154" target="b2e5XpM2e_VBH4c9PTkn-155">
          <mxGeometry relative="1" as="geometry" />
        </mxCell>
        <mxCell id="b2e5XpM2e_VBH4c9PTkn-154" value="continue" style="ellipse;whiteSpace=wrap;html=1;aspect=fixed;" vertex="1" parent="1">
          <mxGeometry x="2744" y="548" width="80" height="80" as="geometry" />
        </mxCell>
        <mxCell id="b2e5XpM2e_VBH4c9PTkn-155" value="" style="verticalLabelPosition=bottom;verticalAlign=top;html=1;shape=mxgraph.flowchart.or;" vertex="1" parent="1">
          <mxGeometry x="2866" y="563" width="50" height="50" as="geometry" />
        </mxCell>
        <mxCell id="b2e5XpM2e_VBH4c9PTkn-166" style="edgeStyle=orthogonalEdgeStyle;rounded=0;orthogonalLoop=1;jettySize=auto;html=1;" edge="1" parent="1" source="b2e5XpM2e_VBH4c9PTkn-162" target="b2e5XpM2e_VBH4c9PTkn-30">
          <mxGeometry relative="1" as="geometry" />
        </mxCell>
        <mxCell id="b2e5XpM2e_VBH4c9PTkn-167" style="edgeStyle=orthogonalEdgeStyle;rounded=0;orthogonalLoop=1;jettySize=auto;html=1;" edge="1" parent="1" source="b2e5XpM2e_VBH4c9PTkn-162" target="b2e5XpM2e_VBH4c9PTkn-116">
          <mxGeometry relative="1" as="geometry" />
        </mxCell>
        <mxCell id="b2e5XpM2e_VBH4c9PTkn-168" style="edgeStyle=orthogonalEdgeStyle;rounded=0;orthogonalLoop=1;jettySize=auto;html=1;" edge="1" parent="1" source="b2e5XpM2e_VBH4c9PTkn-162" target="uNL0XxB8N9niCBaAOZDF-56">
          <mxGeometry relative="1" as="geometry" />
        </mxCell>
        <mxCell id="b2e5XpM2e_VBH4c9PTkn-162" value="branchBuffer" style="strokeWidth=2;html=1;shape=mxgraph.flowchart.decision;whiteSpace=wrap;" vertex="1" parent="1">
          <mxGeometry x="141" y="319" width="100" height="34" as="geometry" />
        </mxCell>
        <mxCell id="b2e5XpM2e_VBH4c9PTkn-172" style="edgeStyle=orthogonalEdgeStyle;rounded=0;orthogonalLoop=1;jettySize=auto;html=1;" edge="1" parent="1" source="b2e5XpM2e_VBH4c9PTkn-170" target="b2e5XpM2e_VBH4c9PTkn-151">
          <mxGeometry relative="1" as="geometry" />
        </mxCell>
        <mxCell id="b2e5XpM2e_VBH4c9PTkn-173" style="edgeStyle=orthogonalEdgeStyle;rounded=0;orthogonalLoop=1;jettySize=auto;html=1;" edge="1" parent="1" source="b2e5XpM2e_VBH4c9PTkn-170" target="b2e5XpM2e_VBH4c9PTkn-154">
          <mxGeometry relative="1" as="geometry" />
        </mxCell>
        <mxCell id="b2e5XpM2e_VBH4c9PTkn-170" value="branchBuffer" style="strokeWidth=2;html=1;shape=mxgraph.flowchart.decision;whiteSpace=wrap;" vertex="1" parent="1">
          <mxGeometry x="290" y="252" width="100" height="50" as="geometry" />
        </mxCell>
      </root>
    </mxGraphModel>
  </diagram>
</mxfile>
